<mxfile host="app.diagrams.net" modified="2023-03-26T20:16:55.336Z" agent="Mozilla/5.0 (Macintosh; Intel Mac OS X 10.15; rv:109.0) Gecko/20100101 Firefox/111.0" etag="eY7hMEB5Eih7vT14VK7m" version="21.1.0" type="device">
  <diagram id="Yfbx8rVYjcb8BNsT8ME1" name="Page-1">
    <mxGraphModel dx="2160" dy="730" grid="1" gridSize="10" guides="1" tooltips="1" connect="1" arrows="1" fold="1" page="1" pageScale="1" pageWidth="1169" pageHeight="827" math="0" shadow="0">
      <root>
        <mxCell id="0" />
        <mxCell id="1" parent="0" />
        <mxCell id="3aO3Zq7IsuRw8pjfxn2K-10" value="" style="edgeStyle=orthogonalEdgeStyle;rounded=0;orthogonalLoop=1;jettySize=auto;html=1;exitX=0.1;exitY=0.5;exitDx=0;exitDy=0;exitPerimeter=0;entryX=1;entryY=0.51;entryDx=0;entryDy=0;entryPerimeter=0;" parent="1" source="3aO3Zq7IsuRw8pjfxn2K-9" target="3aO3Zq7IsuRw8pjfxn2K-2" edge="1">
          <mxGeometry relative="1" as="geometry">
            <mxPoint x="100" y="297.87" as="targetPoint" />
          </mxGeometry>
        </mxCell>
        <mxCell id="3aO3Zq7IsuRw8pjfxn2K-22" value="subscribe" style="edgeLabel;html=1;align=center;verticalAlign=middle;resizable=0;points=[];" parent="3aO3Zq7IsuRw8pjfxn2K-10" vertex="1" connectable="0">
          <mxGeometry x="-0.0381" y="2" relative="1" as="geometry">
            <mxPoint y="-3" as="offset" />
          </mxGeometry>
        </mxCell>
        <mxCell id="GRnljQVBEspsZ97Q6pZn-13" style="edgeStyle=orthogonalEdgeStyle;rounded=0;orthogonalLoop=1;jettySize=auto;html=1;" parent="1" source="3aO3Zq7IsuRw8pjfxn2K-2" target="GRnljQVBEspsZ97Q6pZn-18" edge="1">
          <mxGeometry relative="1" as="geometry">
            <mxPoint x="126.55" y="614" as="targetPoint" />
            <Array as="points">
              <mxPoint x="29" y="160" />
            </Array>
          </mxGeometry>
        </mxCell>
        <mxCell id="3aO3Zq7IsuRw8pjfxn2K-2" value="article-urls" style="sketch=0;aspect=fixed;pointerEvents=1;shadow=0;dashed=0;html=1;strokeColor=none;labelPosition=center;verticalLabelPosition=bottom;verticalAlign=top;align=center;fillColor=#00188D;shape=mxgraph.azure.queue_generic" parent="1" vertex="1">
          <mxGeometry x="4.0000000000000036" y="360.62" width="50" height="15" as="geometry" />
        </mxCell>
        <mxCell id="3aO3Zq7IsuRw8pjfxn2K-5" value="publish" style="edgeStyle=orthogonalEdgeStyle;rounded=0;orthogonalLoop=1;jettySize=auto;html=1;exitX=0.1;exitY=0.5;exitDx=0;exitDy=0;exitPerimeter=0;" parent="1" target="3aO3Zq7IsuRw8pjfxn2K-2" edge="1">
          <mxGeometry relative="1" as="geometry">
            <mxPoint x="-85" y="369.87" as="sourcePoint" />
          </mxGeometry>
        </mxCell>
        <mxCell id="3aO3Zq7IsuRw8pjfxn2K-4" value="rss-article-url-feeder" style="sketch=0;outlineConnect=0;fontColor=#232F3E;gradientColor=none;fillColor=#D45B07;strokeColor=none;dashed=0;verticalLabelPosition=bottom;verticalAlign=top;align=center;html=1;fontSize=12;fontStyle=0;aspect=fixed;pointerEvents=1;shape=mxgraph.aws4.container_1;" parent="1" vertex="1">
          <mxGeometry x="-198.5" y="351" width="48" height="31" as="geometry" />
        </mxCell>
        <mxCell id="3aO3Zq7IsuRw8pjfxn2K-9" value="" style="shape=curlyBracket;whiteSpace=wrap;html=1;rounded=1;" parent="1" vertex="1">
          <mxGeometry x="139" y="317.87" width="20" height="103" as="geometry" />
        </mxCell>
        <mxCell id="GRnljQVBEspsZ97Q6pZn-21" style="edgeStyle=orthogonalEdgeStyle;rounded=0;orthogonalLoop=1;jettySize=auto;html=1;" parent="1" target="GRnljQVBEspsZ97Q6pZn-1" edge="1" source="3aO3Zq7IsuRw8pjfxn2K-11">
          <mxGeometry relative="1" as="geometry">
            <mxPoint x="233" y="480" as="targetPoint" />
            <mxPoint x="233" y="410" as="sourcePoint" />
            <Array as="points">
              <mxPoint x="220" y="460" />
              <mxPoint x="155" y="460" />
            </Array>
          </mxGeometry>
        </mxCell>
        <mxCell id="SSDxU__HPZ5_-qfzZDtQ-6" style="edgeStyle=orthogonalEdgeStyle;rounded=0;hachureGap=4;orthogonalLoop=1;jettySize=auto;html=1;fontFamily=Architects Daughter;fontSource=https%3A%2F%2Ffonts.googleapis.com%2Fcss%3Ffamily%3DArchitects%2BDaughter;fontSize=16;" parent="1" source="3aO3Zq7IsuRw8pjfxn2K-11" target="SSDxU__HPZ5_-qfzZDtQ-2" edge="1">
          <mxGeometry relative="1" as="geometry">
            <Array as="points">
              <mxPoint x="250" y="460" />
              <mxPoint x="320" y="460" />
            </Array>
          </mxGeometry>
        </mxCell>
        <mxCell id="3aO3Zq7IsuRw8pjfxn2K-11" value="keyword-matcher" style="sketch=0;outlineConnect=0;fontColor=#232F3E;gradientColor=none;fillColor=#D45B07;strokeColor=none;dashed=0;verticalLabelPosition=bottom;verticalAlign=top;align=center;html=1;fontSize=12;fontStyle=0;aspect=fixed;pointerEvents=1;shape=mxgraph.aws4.container_1;labelBackgroundColor=default;" parent="1" vertex="1">
          <mxGeometry x="209" y="349.37" width="48" height="31" as="geometry" />
        </mxCell>
        <mxCell id="3aO3Zq7IsuRw8pjfxn2K-16" value="" style="edgeStyle=orthogonalEdgeStyle;rounded=0;orthogonalLoop=1;jettySize=auto;html=1;" parent="1" source="3aO3Zq7IsuRw8pjfxn2K-14" target="3aO3Zq7IsuRw8pjfxn2K-15" edge="1">
          <mxGeometry relative="1" as="geometry" />
        </mxCell>
        <mxCell id="3aO3Zq7IsuRw8pjfxn2K-23" value="publish" style="edgeLabel;html=1;align=center;verticalAlign=middle;resizable=0;points=[];" parent="3aO3Zq7IsuRw8pjfxn2K-16" vertex="1" connectable="0">
          <mxGeometry x="-0.3831" y="-1" relative="1" as="geometry">
            <mxPoint x="10" y="-2" as="offset" />
          </mxGeometry>
        </mxCell>
        <mxCell id="3aO3Zq7IsuRw8pjfxn2K-14" value="" style="shape=curlyBracket;whiteSpace=wrap;html=1;rounded=1;flipH=1;" parent="1" vertex="1">
          <mxGeometry x="310" y="317.87" width="20" height="100" as="geometry" />
        </mxCell>
        <mxCell id="3aO3Zq7IsuRw8pjfxn2K-20" value="" style="edgeStyle=orthogonalEdgeStyle;rounded=0;orthogonalLoop=1;jettySize=auto;html=1;entryX=1;entryY=0.51;entryDx=0;entryDy=0;entryPerimeter=0;" parent="1" source="3aO3Zq7IsuRw8pjfxn2K-19" target="3aO3Zq7IsuRw8pjfxn2K-15" edge="1">
          <mxGeometry relative="1" as="geometry">
            <mxPoint x="490" y="277.87" as="targetPoint" />
          </mxGeometry>
        </mxCell>
        <mxCell id="3aO3Zq7IsuRw8pjfxn2K-24" value="subscribe" style="edgeLabel;html=1;align=center;verticalAlign=middle;resizable=0;points=[];" parent="3aO3Zq7IsuRw8pjfxn2K-20" vertex="1" connectable="0">
          <mxGeometry x="-0.2863" relative="1" as="geometry">
            <mxPoint x="-11" as="offset" />
          </mxGeometry>
        </mxCell>
        <mxCell id="GRnljQVBEspsZ97Q6pZn-19" style="edgeStyle=orthogonalEdgeStyle;rounded=0;orthogonalLoop=1;jettySize=auto;html=1;" parent="1" source="3aO3Zq7IsuRw8pjfxn2K-15" target="GRnljQVBEspsZ97Q6pZn-18" edge="1">
          <mxGeometry relative="1" as="geometry">
            <Array as="points">
              <mxPoint x="434" y="158" />
            </Array>
          </mxGeometry>
        </mxCell>
        <mxCell id="3aO3Zq7IsuRw8pjfxn2K-15" value="match-urls" style="sketch=0;aspect=fixed;pointerEvents=1;shadow=0;dashed=0;html=1;strokeColor=none;labelPosition=center;verticalLabelPosition=bottom;verticalAlign=top;align=center;fillColor=#00188D;shape=mxgraph.azure.queue_generic" parent="1" vertex="1">
          <mxGeometry x="409" y="360.62" width="50" height="15" as="geometry" />
        </mxCell>
        <mxCell id="3aO3Zq7IsuRw8pjfxn2K-29" value="" style="edgeStyle=orthogonalEdgeStyle;rounded=0;orthogonalLoop=1;jettySize=auto;html=1;" parent="1" source="3aO3Zq7IsuRw8pjfxn2K-19" target="3aO3Zq7IsuRw8pjfxn2K-28" edge="1">
          <mxGeometry relative="1" as="geometry" />
        </mxCell>
        <mxCell id="3aO3Zq7IsuRw8pjfxn2K-19" value="pocket-integration" style="sketch=0;outlineConnect=0;fontColor=#232F3E;gradientColor=none;fillColor=#D45B07;strokeColor=none;dashed=0;verticalLabelPosition=bottom;verticalAlign=top;align=center;html=1;fontSize=12;fontStyle=0;aspect=fixed;pointerEvents=1;shape=mxgraph.aws4.container_1;" parent="1" vertex="1">
          <mxGeometry x="568" y="352.62" width="48" height="31" as="geometry" />
        </mxCell>
        <mxCell id="3aO3Zq7IsuRw8pjfxn2K-28" value="getpocket.com" style="dashed=0;outlineConnect=0;html=1;align=center;labelPosition=center;verticalLabelPosition=bottom;verticalAlign=top;shape=mxgraph.weblogos.pocket;fillColor=#EE4056;strokeColor=none" parent="1" vertex="1">
          <mxGeometry x="708" y="349.92" width="39.55" height="36.4" as="geometry" />
        </mxCell>
        <mxCell id="GRnljQVBEspsZ97Q6pZn-17" style="edgeStyle=orthogonalEdgeStyle;rounded=0;orthogonalLoop=1;jettySize=auto;html=1;startArrow=classic;startFill=1;endArrow=none;endFill=0;" parent="1" target="pSf1_7d5s_QFF2AIXK5g-17" edge="1">
          <mxGeometry relative="1" as="geometry">
            <mxPoint x="232.48999999999995" y="293" as="sourcePoint" />
            <mxPoint x="232.48999999999995" y="230" as="targetPoint" />
            <Array as="points">
              <mxPoint x="233" y="240" />
              <mxPoint x="-112" y="240" />
            </Array>
          </mxGeometry>
        </mxCell>
        <mxCell id="ECJ3aQ_ZEP6LiHeEjr_w-2" value="read" style="edgeLabel;html=1;align=center;verticalAlign=middle;resizable=0;points=[];" parent="GRnljQVBEspsZ97Q6pZn-17" vertex="1" connectable="0">
          <mxGeometry x="0.3651" y="-2" relative="1" as="geometry">
            <mxPoint x="267" y="26" as="offset" />
          </mxGeometry>
        </mxCell>
        <mxCell id="pSf1_7d5s_QFF2AIXK5g-6" value="&lt;font style=&quot;font-size: 20px;&quot;&gt;8x&lt;/font&gt;" style="text;html=1;strokeColor=none;fillColor=none;align=center;verticalAlign=middle;whiteSpace=wrap;rounded=0;" parent="1" vertex="1">
          <mxGeometry x="204.5" y="307.87" width="57" height="30" as="geometry" />
        </mxCell>
        <mxCell id="pSf1_7d5s_QFF2AIXK5g-12" value="" style="shape=curlyBracket;whiteSpace=wrap;html=1;rounded=1;" parent="1" vertex="1">
          <mxGeometry x="-270" y="320" width="20" height="103" as="geometry" />
        </mxCell>
        <mxCell id="pSf1_7d5s_QFF2AIXK5g-13" value="" style="shape=curlyBracket;whiteSpace=wrap;html=1;rounded=1;flipH=1;" parent="1" vertex="1">
          <mxGeometry x="-99" y="320" width="20" height="100" as="geometry" />
        </mxCell>
        <mxCell id="pSf1_7d5s_QFF2AIXK5g-14" value="&lt;font style=&quot;font-size: 20px;&quot;&gt;2x&lt;/font&gt;" style="text;html=1;strokeColor=none;fillColor=none;align=center;verticalAlign=middle;whiteSpace=wrap;rounded=0;" parent="1" vertex="1">
          <mxGeometry x="-203" y="307.87" width="57" height="30" as="geometry" />
        </mxCell>
        <mxCell id="pSf1_7d5s_QFF2AIXK5g-17" value="&lt;font style=&quot;font-size: 12px;&quot;&gt;keywords.txt&lt;/font&gt;" style="sketch=0;pointerEvents=1;shadow=0;dashed=0;html=1;strokeColor=none;fillColor=#505050;labelPosition=center;verticalLabelPosition=bottom;verticalAlign=top;outlineConnect=0;align=center;shape=mxgraph.office.concepts.document;fontSize=20;labelBackgroundColor=default;" parent="1" vertex="1">
          <mxGeometry x="-124.535" y="140.29" width="25.53" height="30" as="geometry" />
        </mxCell>
        <mxCell id="SSDxU__HPZ5_-qfzZDtQ-7" value="" style="edgeStyle=orthogonalEdgeStyle;rounded=0;hachureGap=4;orthogonalLoop=1;jettySize=auto;html=1;fontFamily=Architects Daughter;fontSource=https%3A%2F%2Ffonts.googleapis.com%2Fcss%3Ffamily%3DArchitects%2BDaughter;fontSize=16;" parent="1" source="GRnljQVBEspsZ97Q6pZn-1" target="GRnljQVBEspsZ97Q6pZn-11" edge="1">
          <mxGeometry relative="1" as="geometry" />
        </mxCell>
        <mxCell id="GRnljQVBEspsZ97Q6pZn-1" value="Load Balancer" style="shape=image;verticalLabelPosition=bottom;labelBackgroundColor=default;verticalAlign=top;aspect=fixed;imageAspect=0;image=data:image/svg+xml,PHN2ZyB4bWxucz0iaHR0cDovL3d3dy53My5vcmcvMjAwMC9zdmciIHJvbGU9ImltZyIgdmlld0JveD0iLTkuNDggLTkuNDggMzc5Ljk2IDQ5Mi45NiI+PHRpdGxlPk5HSU5YIGxvZ288L3RpdGxlPjxwYXRoIGZpbGw9IiMxN2FkNDkiIGQ9Ik01MC4xNTUgMTk4LjI1OWExMy4zNjQgMTMuMzY0IDAgMCAwIDUuMDE3IDQuOTc4bDEwMi42MjQgNTkuMjUuMDAzLS4wMDNhMTMuMzk1IDEzLjM5NSAwIDAgMCA2LjgyIDEuODU1YzIuNDg5IDAgNC44MjEtLjY3NiA2LjgyLTEuODU1bDEwMi42MjgtNTkuMjVhMTMuMzU1IDEzLjM1NSAwIDAgMCA1LjAxMi00Ljk3NSAxMy4zNDMgMTMuMzQzIDAgMCAwIDEuODA0LTYuODM0di0xMTguNWwtLjAwMy0uMDAyYTEzLjQzNSAxMy40MzUgMCAwIDAtMS44MDQtNi44MzQgMTMuNDMgMTMuNDMgMCAwIDAtNS4wMTYtNC45NzdMMTcxLjQzMiAxLjg2MlYxLjg2YTEzLjM3IDEzLjM3IDAgMCAwLTYuODE2LTEuODU1Yy0yLjQ4NyAwLTQuODE1LjY3Ni02LjgxNSAxLjg1NXYuMDA0TDU1LjE3OCA2MS4xMTJhMTMuNDE2IDEzLjQxNiAwIDAgMC01LjAyIDQuOTc3IDEzLjQyMyAxMy40MjMgMCAwIDAtMS44MDMgNi44MzRsLS4wMDMuMDAydjExOC41YTEzLjM3OSAxMy4zNzkgMCAwIDAgMS44IDYuODM0Ii8+PHBhdGggZmlsbD0iI2ZmZiIgZD0iTTEzMS43NTkgMTc3LjI4NGMwIDcuMjg4LTUuOTA3IDEzLjE5OS0xMy4xOTggMTMuMTk5LTcuMjg4IDAtMTMuMTk4LTUuOTExLTEzLjE5OC0xMy4xOTlsLjAwNC4wMDQuMDEzLTkwLjU5OWMwLTcuMDE4IDYuMjAxLTEyLjgyMiAxNC45ODUtMTIuODIyIDYuMjg4IDAgMTMuNTQ3IDIuNTM2IDE3Ljk5IDguMDQ0bDMuOTg4IDQuNzcyIDU1LjEzNyA2NS45ODRWODcuMDU5aC0uMDA3YzAtNy4yOSA1LjkxMS0xMy4xOTkgMTMuMjAyLTEzLjE5OSA3LjI4OCAwIDEzLjE5NCA1LjkxIDEzLjE5NCAxMy4xOTloLS4wMDJsLS4wMTQgOTAuNTljMCA3LjAyLTYuMjA0IDEyLjgyNC0xNC45ODUgMTIuODI0LTYuMjkgMC0xMy41NDctMi41MzMtMTcuOTktOC4wNDRsLTU5LjEyNS03MC43NTd2NjUuNjE2bC4wMDYtLjAwNCIvPjxwYXRoIGZpbGw9IiM5NTkzOTQiIGQ9Ik0zNTcuOCA0MDAuNjY3YzEuNDY4IDEuNDMzIDIuMTg3IDMuMjIgMi4xODcgNS4zIDAgMi4wNTctLjcxOSAzLjg1OC0yLjE4NyA1LjMyNS0xLjQ0NSAxLjQ2LTMuMjIxIDIuMjEtNS4zMDggMi4yMS0yLjA3MiAwLTMuODM3LS43NS01LjMwMy0yLjIxLTEuNDM3LTEuNDY3LTIuMTc2LTMuMjY4LTIuMTc2LTUuMzI2IDAtMi4wNzguNzM5LTMuODY2IDIuMTc2LTUuMyAxLjQ4Ni0xLjQ5MSAzLjI0NC0yLjIyNCA1LjMwMy0yLjIyNCAyLjA3NyAwIDMuODQ0LjczMyA1LjMwOCAyLjIyNW0uODg1LS44NjRjLTEuNzE2LTEuNjk0LTMuNzY5LTIuNTM0LTYuMTkzLTIuNTM0LTIuMzc1IDAtNC40NDcuODQtNi4xMjMgMi41MzQtMS43MTQgMS42OTctMi41NDUgMy43NTEtMi41NDUgNi4xNjMgMCAyLjQwOS44MjEgNC40NzEgMi41MTUgNi4xNjIgMS42ODEgMS43MTQgMy43NTYgMi41NjcgNi4xNTMgMi41NjcgMi40MjQgMCA0LjQ3Ny0uODUzIDYuMTkzLTIuNTY3IDEuNjgyLTEuNjk5IDIuNTUtMy43NyAyLjU1LTYuMTYyIDAtMi40MjktLjg2OC00LjQ2Ni0yLjU1LTYuMTYzbS00Ljg5NyA1Ljc0MWMtLjM0LjE0NS0uODc3LjIxMi0xLjYwNC4yMTJoLTEuNTA3di0zLjQ3NmgxLjQzOGMuOTMyIDAgMS42MDYuMTMyIDIuMDI2LjM3Mi40MjguMjQuNjM1LjcwMS42MzUgMS4zOTUgMCAuNzM4LS4zMjEgMS4yMjQtLjk4OCAxLjQ5N20tNC43OTYgNS4xNWgxLjY4NXYtMy43NTdoMS4zMzVjLjg4MSAwIDEuNTEzLjA4NyAxLjg3My4zMTQuNTkuMzQ1Ljg5MSAxLjA4Ni44OTEgMi4xODV2Ljc3bC4wMzcuMjg3Yy4wMjIuMDYzLjAyMi4wOS4wMjcuMTIuMDA4LjA0Ny4wMTIuMDYuMDM3LjA4MmgxLjU2M2wtLjA1Ni0uMTA3Yy0uMDQ4LS4wNzMtLjA3My0uMjM2LS4wNzctLjQ5LS4wMjItLjI2OS0uMDIyLS41LS4wMjItLjcxM3YtLjcxMmMwLS40NzctLjE3OC0uOTY1LS41MjItMS40ODgtLjM1NS0uNTA0LS45MTEtLjgwMi0xLjY2NC0uOTM0LjU5NC0uMSAxLjA2Mi0uMjYgMS4zODYtLjQ1MS42MzktLjQwMy45MzItMS4wNTYuOTMyLTEuODkgMC0xLjIwNC0uNDc0LTIuMDI1LTEuNDc0LTIuNDI3LS41NTItLjIyNy0xLjQxOC0uMzQyLTIuNjE1LS4zNDJoLTMuMzM2djkuNTU0bS03MS42ODctMTgwLjkzYzEuNDY4IDEuNDM1IDIuMTg3IDMuMjIzIDIuMTg3IDUuMyAwIDIuMDU5LS43MTkgMy44Ni0yLjE4NyA1LjMyNy0xLjQ0NiAxLjQ1OS0zLjIyMSAyLjIwOC01LjMwOSAyLjIwOC0yLjA3IDAtMy44MzYtLjc1LTUuMzAxLTIuMjA4LTEuNDM2LTEuNDY3LTIuMTc2LTMuMjY4LTIuMTc2LTUuMzI3IDAtMi4wNzcuNzQtMy44NjUgMi4xNzYtNS4zIDEuNDg1LTEuNDkgMy4yNDQtMi4yMjQgNS4zMDEtMi4yMjQgMi4wNzkgMCAzLjg0Ny43MzQgNS4zMSAyLjIyNG0uODg1LS44NjRjLTEuNzE2LTEuNjkzLTMuNzY4LTIuNTMyLTYuMTk1LTIuNTMyLTIuMzczIDAtNC40NDUuODM5LTYuMTIxIDIuNTMyLTEuNzE1IDEuNjk5LTIuNTQ2IDMuNzUyLTIuNTQ2IDYuMTY0IDAgMi40MS44MjIgNC40NzIgMi41MTUgNi4xNjIgMS42ODEgMS43MTYgMy43NTYgMi41NjYgNi4xNTIgMi41NjYgMi40MjcgMCA0LjQ3OS0uODUgNi4xOTUtMi41NjYgMS42ODEtMS42OTggMi41NDktMy43NyAyLjU0OS02LjE2MiAwLTIuNDI4LS44NjgtNC40NjUtMi41NS02LjE2NG0tNC44OTcgNS43NDJjLS4zMzguMTQ2LS44NzcuMjEzLTEuNjA0LjIxM2gtMS41MDZ2LTMuNDc3aDEuNDM3Yy45MzIgMCAxLjYwOC4xMzIgMi4wMjcuMzczLjQyOC4yMzkuNjM0LjcwMS42MzQgMS4zOTMgMCAuNzQtLjMyMSAxLjIyNC0uOTg4IDEuNDk4bS00Ljc5NyA1LjE1aDEuNjg3di0zLjc1NmgxLjMzNGMuODgyIDAgMS41MTUuMDg2IDEuODc0LjMxMi41ODkuMzQ3Ljg5IDEuMDg3Ljg5IDIuMTg2di43N2wuMDM4LjI4N2MuMDIxLjA2NC4wMjEuMDkuMDI2LjEyLjAwOC4wNDcuMDEyLjA2MS4wMzguMDgxaDEuNTYybC0uMDU3LS4xMDZjLS4wNDUtLjA3Mi0uMDcyLS4yMzYtLjA3NS0uNDg4LS4wMjItLjI3MS0uMDIyLS41LS4wMjItLjcxNHYtLjcxMmMwLS40NzctLjE3OS0uOTY1LS41MjMtMS40ODktLjM1NS0uNTAzLS45MS0uODAzLTEuNjY0LS45MzUuNTk1LS4wOTggMS4wNjMtLjI1NyAxLjM4OC0uNDUuNjM3LS40MDIuOTMtMS4wNTUuOTMtMS44OTEgMC0xLjIwMS0uNDc0LTIuMDIzLTEuNDc0LTIuNDI1LS41NTItLjIyNy0xLjQxNi0uMzQzLTIuNjE1LS4zNDNoLTMuMzM3djkuNTUzbS0yNC42OTMgMjE1LjY0OGgtNS42Njh2LTcuNzdoMTMuMzg5di0zLjQ3NmgtMTcuMDc2djE0LjY4Mmg5LjE4N2MzLjI3NiAwIDUuMTY1IDEuNTEgNS4xNjUgNC4yMzl2Mi45ODFjMCAzLjA2Ni0yLjA5OSA0Ljc4Ny01Ljg3NyA0Ljc4Ny0zLjYxMSAwLTUuNzExLTEuNzIxLTUuNzExLTQuNzg3di0yLjc3aC0zLjY4OHYyLjY4NmMwIDUuMDM5IDMuNzcyIDguMzA3IDkuMzk5IDguMzA3IDUuNzUyIDAgOS41MjItMy4yNjggOS41MjItOC4zMDdWNDYzLjJjMC00LjctMy4zOTQtNy43NTktOC42NDItNy43NTltLTEzLjU3MS03Ljc3MXYtMy40NzVoLTE4LjA4MXYyOS41OGgzLjY4NnYtMTEuOTJoMTIuOTI3di0zLjUxOWgtMTIuOTI3di0xMC42NjVoMTQuMzk1bS0zMy4xOTItMi44MWgxLjg0NXYtMy4zOTVoLTIuMjY1Yy00LjgyNCAwLTcuNTQ4IDIuOTc1LTcuNTQ4IDguMDU3djMuMDY1aC0yLjQ3NnYzLjM1MmgyLjQ3NnYxNy44MzVoMy41NjFWNDU1Ljk0aDUuODc1di0zLjM1MmgtNS44NzV2LTIuNzcyYzAtMy41MjggMS4zODYtNC45NTUgNC40MDctNC45NTVtLTQ2LjUzNSAyNS41MTljLTIuODk2IDAtNC4zMjItMS4zNDMtNC4zMjItNC43NDN2LTkuNjk3aDUuNzkydi0zLjM1MmgtNS43OTJ2LTYuMjFoLTMuNTYydjYuMjFoLTIuODUzdjMuMzUyaDIuODUzdjEwLjQ5NWMwIDUuMDc3IDIuMzg4IDcuMzQgNy4xMyA3LjM0aDIuNjAxdi0zLjM5NWgtMS44NDdtLTE0LjczNS0xOC4xN2MtMi41MTcgMC00Ljk5My44NzgtNi41NDUgMi41NTVsLS43MTItMi4xNzdoLTIuNDczdjIxLjE4N2gzLjU2M3YtMTMuMzQxYzAtMy40ODcgMi41Ni01LjEyNSA1LjU4MS01LjEyNS41ODcgMCAxLjIxNi4wODQgMS44MDQuMjExdi0zLjI2OGMtLjQyLS4wNDMtLjg0LS4wNDMtMS4yMTctLjA0M200NC4yODIgMTMuMDkyYzAgMy43MzYtMS42OCA1LjYyMy01LjUgNS42MjMtMy44MjEgMC01LjQ1OC0xLjg4Ny01LjQ1OC01LjYyM3YtNC4yODNjMC0zLjczNyAxLjY4LTUuNTgyIDUuNS01LjU4MiAzLjgyMSAwIDUuNDU4IDEuODQ1IDUuNDU4IDUuNTgyem0tNS41LTEzLjI2Yy01LjkxOCAwLTkuMDIgMy4zMS05LjAyIDguNzY4djQuNzAyYzAgNS40NTcgMy4xMDIgOC44MDkgOS4wNjIgOC44MDkgNS45MiAwIDkuMDItMy4zNTIgOS4wMi04Ljgxdi00LjdjMC01LjQ1OC0zLjEtOC43NjktOS4wNjItOC43NjltLTYyLjQ2IDE4Ljg4NGMtMy41NjggMC01LjMzMi0xLjc2Mi01LjMzMi01Ljc5MnYtMy45NDZjMC00LjAzIDEuNzY0LTUuNzUgNS4zMzItNS43NSAzLjI3NSAwIDUuMjkgMS41OTMgNS41ODQgNS4wNzh2NS4yODljLS4yOTQgMy41MjYtMi4zNTEgNS4xMjEtNS41ODQgNS4xMjFtNi42NzMtMTguMzM3bC0uNjcgMi4xMzZjLTEuNTEtMS44MDMtMy44Mi0yLjY4My02LjYzMi0yLjY4My01LjIwNiAwLTguMjY1IDIuNTk5LTguMjY1IDguOTM1djQuNDFjMCA2LjI5NCAzLjA1OSA4LjkzNCA4LjI2NSA4LjkzNCAyLjgxMyAwIDUuMTIyLS44OCA2LjYzMy0yLjY4MWwuNjcgMi4xMzZoMi40NzN2LTIxLjE4N2gtMi40NzRtLTIyLjMxNSAyLjY0YzAgMi44MTQtMS42OCA0LjI4NC01LjIwNyA0LjI4NGgtOC4xMDF2LTExLjg0MWg4LjE0NGMzLjQ4NCAwIDUuMTY0IDEuNTEzIDUuMTY0IDQuMzI2em0tNS40MTYtMTEuMDMzaC0xMS41OHYyOS41OGgzLjY4OHYtMTAuNzQzaDcuOTMzYzUuNzUgMCA5LjAyLTIuOTc2IDkuMDItNy44MDR2LTMuMjNjMC00Ljg3LTMuMjctNy44MDMtOS4wNjEtNy44MDMiLz48cGF0aCBmaWxsPSIjMjMxZjIwIiBkPSJNMzMwLjc4MSAzMjUuNDMyaC0xNy4zOThsLTE5LjE2NCAzMC4zODQtMTguNjU5LTMwLjM4NGgtMTguMDNsMjYuODU1IDQzLjg3Ni0yNy4xMDYgNDUuMzg3aDE3LjE0NmwxOS4wMzgtMzAuNjM2IDE4LjY1OCAzMC42MzZoMTguMDNsLTI3LjEwNy00NC4yNTMgMjcuNzM3LTQ1LjAxbS05NS43MjUgMHY2MC43N2wtMzUuMDUtNjAuNzdoLTE0LjQ5OHY4OS4yNjNoMTQuNDk5di02MC4zOWwzNS4wNDkgNjAuMzloMTQuNjI1di04OS4yNjNoLTE0LjYyNW0tNzYuOTgzIDg5LjI2M2gxNS41MDh2LTg5LjI2M2gtMTUuNTA4djg5LjI2M20tMTEuOTI2LTU3LjQ5MnYtNS4wNDJjMC0xNy4yNzItMTIuNzM0LTI4LjQ5My0zNS4wNS0yOC40OTMtMjIuMTg5IDAtMzQuOTIyIDExLjIyMS0zNC45MjIgMjguNDkzdjM1LjgwNWMwIDE3LjI3MyAxMi44NiAyOC40OTMgMzUuMDQ5IDI4LjQ5MyAyMi4xOSAwIDM0LjkyMy0xMS4yMiAzNC45MjMtMjguNDkzdi0yMC45MjloLTM1LjU1M3YxNC4zNzRoMjAuMDQ2djUuNjczYzAgOS4zMy03LjA2IDE1LjAwNC0xOS41NDMgMTUuMDA0LTEyLjM1NCAwLTE5LjQxNC01LjY3My0xOS40MTQtMTUuMDA0di0zNC4wNDJjMC05LjMyNyA3LjA2LTE1LjAwMiAxOS41NDEtMTUuMDAyIDEyLjM1NiAwIDE5LjQxNiA1LjY3NSAxOS40MTYgMTUuMDAydjQuMTZoMTUuNTA3bS05Ni41OTktMzEuNzd2NjAuNzdsLTM1LjA1LTYwLjc3SDB2ODkuMjYzaDE0LjQ5OHYtNjAuMzlsMzUuMDUgNjAuMzloMTQuNjI1di04OS4yNjNINDkuNTQ4Ii8+PC9zdmc+;" parent="1" vertex="1">
          <mxGeometry x="127.59999999999997" y="500" width="53.9" height="70" as="geometry" />
        </mxCell>
        <mxCell id="GRnljQVBEspsZ97Q6pZn-8" value="fullfeedrss" style="sketch=0;outlineConnect=0;fontColor=#232F3E;gradientColor=none;fillColor=#D45B07;strokeColor=none;dashed=0;verticalLabelPosition=bottom;verticalAlign=top;align=center;html=1;fontSize=12;fontStyle=0;aspect=fixed;pointerEvents=1;shape=mxgraph.aws4.container_1;" parent="1" vertex="1">
          <mxGeometry x="130.00000000000006" y="686.13" width="48" height="31" as="geometry" />
        </mxCell>
        <mxCell id="GRnljQVBEspsZ97Q6pZn-9" value="" style="shape=curlyBracket;whiteSpace=wrap;html=1;rounded=1;" parent="1" vertex="1">
          <mxGeometry x="58.50000000000006" y="655.13" width="20" height="103" as="geometry" />
        </mxCell>
        <mxCell id="GRnljQVBEspsZ97Q6pZn-10" value="" style="shape=curlyBracket;whiteSpace=wrap;html=1;rounded=1;flipH=1;" parent="1" vertex="1">
          <mxGeometry x="229.50000000000006" y="655.13" width="20" height="100" as="geometry" />
        </mxCell>
        <mxCell id="GRnljQVBEspsZ97Q6pZn-11" value="&lt;font style=&quot;font-size: 20px;&quot;&gt;2x&lt;/font&gt;" style="text;html=1;strokeColor=none;fillColor=none;align=center;verticalAlign=middle;whiteSpace=wrap;rounded=0;" parent="1" vertex="1">
          <mxGeometry x="125.50000000000006" y="643" width="57" height="30" as="geometry" />
        </mxCell>
        <mxCell id="-kf4WEdqDN9BY3En3-5L-5" style="edgeStyle=orthogonalEdgeStyle;rounded=0;hachureGap=4;orthogonalLoop=1;jettySize=auto;html=1;fontFamily=Architects Daughter;fontSource=https%3A%2F%2Ffonts.googleapis.com%2Fcss%3Ffamily%3DArchitects%2BDaughter;fontSize=16;" parent="1" source="GRnljQVBEspsZ97Q6pZn-18" target="-kf4WEdqDN9BY3En3-5L-2" edge="1">
          <mxGeometry relative="1" as="geometry">
            <Array as="points">
              <mxPoint x="280" y="190" />
              <mxPoint x="354" y="190" />
            </Array>
          </mxGeometry>
        </mxCell>
        <mxCell id="GRnljQVBEspsZ97Q6pZn-18" value="nats-server" style="shape=image;verticalLabelPosition=bottom;labelBackgroundColor=default;verticalAlign=top;aspect=fixed;imageAspect=0;image=data:image/svg+xml,PHN2ZyB4bWxucz0iaHR0cDovL3d3dy53My5vcmcvMjAwMC9zdmciIHJvbGU9ImltZyIgdmlld0JveD0iLTQuMTQgLTMuODkgNDM2LjI4IDExOS4wMyI+PHRpdGxlPk5BVFMgbG9nbzwvdGl0bGU+PHN0eWxlPnN2ZyB7ZW5hYmxlLWJhY2tncm91bmQ6bmV3IDAgMCA0MjkgMTEwfTwvc3R5bGU+PHN0eWxlPi5zdDF7ZmlsbDojZmZmfS5zdDJ7ZmlsbDojMzRhNTc0fTwvc3R5bGU+PHBhdGggZmlsbD0iIzI3YWFlMSIgZD0iTTQuMyA4NC42aDQyLjJMNzAuNyAxMDdWODQuNkgxMDN2LTgwSDQuM3Y4MHptMTUuOS02MS4zaDE4LjVsMzUuNiAzMy4yVjIzLjNoMTEuOHY0Mi45SDY4LjJMMzIgMzIuNHYzMy44SDIwLjJWMjMuM3oiLz48cGF0aCBkPSJNMzIgMzIuNGwzNi4yIDMzLjhoMTcuOVYyMy4zSDc0LjN2MzMuMkwzOC43IDIzLjNIMjAuMnY0Mi45SDMyeiIgY2xhc3M9InN0MSIvPjxwYXRoIGQ9Ik0xNTkuOCAzMC43TDE0NyA0OWgyNS42eiIgY2xhc3M9InN0MiIvPjxwYXRoIGQ9Ik0xMTEuMyA4NC42SDIxMHYtODBoLTk4Ljd2ODB6bTQxLTYxLjVIMTY4bDMwLjggNDMuMmgtMTQuMWwtNS44LTguM2gtMzguMWwtNS44IDguM2gtMTMuNWwzMC44LTQzLjJ6IiBjbGFzcz0ic3QyIi8+PHBhdGggZD0iTTE0MC44IDU3LjloMzguMWw1LjggOC4zaDE0LjFMMTY4IDIzLjFoLTE1LjdsLTMwLjggNDMuMkgxMzVsNS44LTguNHptMTktMjcuMkwxNzIuNiA0OUgxNDdsMTIuOC0xOC4zeiIgY2xhc3M9InN0MSIvPjxwYXRoIGZpbGw9IiMzNzVjOTMiIGQ9Ik0yMTguMyA4NC42SDMxN3YtODBoLTk4Ljd2ODB6bTE1LjUtNjEuM2g2Ni43VjMzaC0yNy4ydjMzLjJoLTEyLjJWMzNoLTI3LjN2LTkuN3oiLz48cGF0aCBkPSJNMjYxLjEgNjYuMmgxMi4yVjMzaDI3LjJ2LTkuN2gtNjYuN1YzM2gyNy4zeiIgY2xhc3M9InN0MSIvPjxwYXRoIGZpbGw9IiM4ZGM2M2YiIGQ9Ik0zMjUuMyA0LjZ2ODBINDI0di04MGgtOTguN3ptNzYuNSA1Ni43Yy0zLjIgMy4yLTEwLjIgNS43LTI2LjggNS43LTEyLjMgMC0yNC4xLTEuOS0zMC43LTQuN3YtMTBjNi4zIDIuOCAyMC4xIDUuNSAzMC43IDUuNSA5LjMgMCAxNS44LS4zIDE3LjUtMi4xLjYtLjYuNy0xLjMuNy0yIDAtLjgtLjItMS4zLS43LTEuOC0xLTEtMi42LTEuNy0xNy40LTIuMS0xNS43LS40LTIzLjQtMi0yNy01LjYtMS43LTEuNy0yLjYtNC40LTIuNi03LjUgMC0zLjMuNi02LjIgMy4zLTguOSAzLjYtMy42IDEwLjctNS4zIDI1LjEtNS4zIDEwLjggMCAyMS42IDEuNyAyNy4zIDR2MTAuMWMtNi41LTIuOC0xNy44LTQuOC0yNy4yLTQuOC0xMC40IDAtMTQuOC42LTE2LjIgMi0uNS41LS44IDEuMS0uOCAxLjkgMCAuOS4yIDEuNS43IDIgMS4zIDEuMyA2LjEgMS43IDE3LjMgMS45IDE2LjQuNCAyMy41IDEuOCAyNyA1LjIgMS44IDEuOCAyLjggNC43IDIuOCA3LjcuMSAzLjItLjYgNi40LTMgOC44eiIvPjxwYXRoIGQ9Ik0zNzUuMiAzOS41Yy0xMS4yLS4yLTE2LS42LTE3LjMtMS45LS41LS41LS43LTEuMS0uNy0yIDAtLjguMy0xLjQuOC0xLjkgMS4zLTEuMyA1LjgtMiAxNi4yLTIgOS40IDAgMjAuNyAyIDI3LjIgNC44di0xMGMtNS43LTIuMy0xNi42LTQtMjcuMy00LTE0LjUgMC0yMS42IDEuOC0yNS4xIDUuMy0yLjcgMi43LTMuMyA1LjYtMy4zIDguOSAwIDMuMSAxIDUuOCAyLjYgNy41IDMuNiAzLjYgMTEuMyA1LjIgMjcgNS42IDE0LjguNCAxNi40IDEuMSAxNy40IDIuMS41LjUuNyAxIC43IDEuOCAwIC43LS4xIDEuMy0uNyAyLTEuOCAxLjgtOC4zIDIuMS0xNy41IDIuMS0xMC42IDAtMjQuMy0yLjYtMzAuNy01LjV2MTAuMWM2LjYgMi44IDE4LjQgNC43IDMwLjcgNC43IDE2LjYgMCAyMy42LTIuNSAyNi44LTUuNyAyLjQtMi40IDMuMS01LjYgMy4xLTguOSAwLTMuMS0xLTUuOS0yLjgtNy43LTMuNi0zLjUtMTAuNy00LjktMjcuMS01LjN6IiBjbGFzcz0ic3QxIi8+PC9zdmc+;" parent="1" vertex="1">
          <mxGeometry x="167.03" y="140" width="131.95" height="36.29" as="geometry" />
        </mxCell>
        <mxCell id="GRnljQVBEspsZ97Q6pZn-20" style="edgeStyle=orthogonalEdgeStyle;rounded=0;orthogonalLoop=1;jettySize=auto;html=1;startArrow=classic;startFill=1;endArrow=none;endFill=0;" parent="1" target="nRE7B-y5H1GmPLAHqj0j-6" edge="1">
          <mxGeometry relative="1" as="geometry">
            <mxPoint x="-175.21000000000004" y="293" as="sourcePoint" />
            <mxPoint x="-175" y="200" as="targetPoint" />
            <Array as="points" />
          </mxGeometry>
        </mxCell>
        <mxCell id="ECJ3aQ_ZEP6LiHeEjr_w-1" value="read" style="edgeLabel;html=1;align=center;verticalAlign=middle;resizable=0;points=[];" parent="GRnljQVBEspsZ97Q6pZn-20" vertex="1" connectable="0">
          <mxGeometry x="-0.1746" y="-2" relative="1" as="geometry">
            <mxPoint x="-1" y="23" as="offset" />
          </mxGeometry>
        </mxCell>
        <mxCell id="SSDxU__HPZ5_-qfzZDtQ-1" value="" style="shape=image;verticalLabelPosition=bottom;labelBackgroundColor=default;verticalAlign=top;aspect=fixed;imageAspect=0;image=data:image/svg+xml,PHN2ZyB4bWxucz0iaHR0cDovL3d3dy53My5vcmcvMjAwMC9zdmciIHJvbGU9ImltZyIgeG1sbnM6eGxpbms9Imh0dHA6Ly93d3cudzMub3JnLzE5OTkveGxpbmsiIHZpZXdCb3g9IjUuNTUgNDguMDUgMjY0My45MCAyNzAxLjQwIj48dGl0bGU+R3JhZmFuYSBsb2dvPC90aXRsZT48c3R5bGU+c3ZnIHtlbmFibGUtYmFja2dyb3VuZDpuZXcgMCAwIDI2ODcgMjgxNn08L3N0eWxlPjxzdHlsZT4uc3QzNXtjbGlwLXBhdGg6dXJsKCNTVkdJRF8yXyl9PC9zdHlsZT48ZGVmcz48cGF0aCBpZD0iU1ZHSURfMV8iIGQ9Ik0tODQ5LjctMTQxMi4yaDQzNTUuMlY0MjI0SC04NDkuN3oiLz48L2RlZnM+PGNsaXBQYXRoIGlkPSJTVkdJRF8yXyI+PHVzZSBvdmVyZmxvdz0idmlzaWJsZSIgeGxpbms6aHJlZj0iI1NWR0lEXzFfIi8+PC9jbGlwUGF0aD48ZyBjbGFzcz0ic3QzNSI+PGRlZnM+PHBhdGggaWQ9IlNWR0lEXzNfIiBkPSJNLTg0OS43LTE0MTIuMmg0MzU1LjJWNDIyNEgtODQ5Ljd6Ii8+PC9kZWZzPjxjbGlwUGF0aCBpZD0iU1ZHSURfNF8iPjx1c2Ugb3ZlcmZsb3c9InZpc2libGUiIHhsaW5rOmhyZWY9IiNTVkdJRF8zXyIvPjwvY2xpcFBhdGg+PHBhdGggZmlsbD0iIzQxNDA0MiIgZD0iTTU3MS41IDI0NDYuMWMtNS41IDE0MS42LTExNy4yIDI1MS45LTI1NiAyNTEuOS0xNDYuNSAwLTI1NS40LTExOC42LTI1NS40LTI2MS42IDAtMTQ0LjQgMTE3LjktMjYzIDI2MS42LTI2MyA2NC45IDAgMTI4LjQgMjcuOSAxODIuMSA3OC4xbC00MS45IDUxLjZjLTQxLjItMzUuNi05MC43LTYwLTE0MC4yLTYwLTEwNS40IDAtMTkxLjkgODYuNS0xOTEuOSAxOTMuMyAwIDEwOC4xIDgxLjYgMTkxLjkgMTg1LjYgMTkxLjkgOTMuNSAwIDE2Ni44LTY4LjQgMTgxLjQtMTU2LjNoLTIxMnYtNjIuMWgyODYuOHYzNi4yem0yNDMuNS0zNC4yaC0zOS4xYy00My4yIDAtNzguMSAzNS03OC4xIDc4LjF2MjAzLjdINjI4di0zNDguOWg1Ny4ydjI5LjNjMTguOC0xOC44IDQ4LjgtMjkuMyA4Mi4zLTI5LjNoNzUuM2wtMjcuOCA2Ny4xem0zODAuMiAyODEuOWgtNTkuM3YtNDRjLTQ1LjkgNDQuOC0xMTguMiA2Ni4zLTE5MS41IDM0LjEtNTQuMy0yMy45LTk0LjctNzMuNC0xMDUuNS0xMzEuOC0yMC44LTExMi44IDY2LTIxMi45IDE3Ni45LTIxMi45IDQ2LjcgMCA4OC42IDE4LjggMTE5LjMgNDkuNXYtNDRoNjB2MzQ5LjF6bS03MS40LTE0OS40YzE2LjUtNzAuOS0zNy4yLTEzNS4zLTEwNy4yLTEzNS4zLTYwLjcgMC0xMDkuNSA0OS41LTEwOS41IDEwOS41IDAgNjcuOSA1OS43IDEyMC40IDEyOS4xIDEwOC42IDQyLjctNy4zIDc3LjgtNDAuNSA4Ny42LTgyLjhtMjEyLTIxOXYxOS41aDExMC45djYxLjRoLTExMC45djI4Ny41aC02OS4xdi0zNjYuM2MwLTc2LjggNTUuMS0xMjIuMSAxMjQuMi0xMjIuMWg4My43bC0yNy45IDY1LjZIMTM5MWMtMzAuNyAwLTU1LjIgMjQuNC01NS4yIDU0LjRtNDgwLjcgMzY4LjRoLTU5LjN2LTQ0Yy00NS45IDQ0LjgtMTE4LjIgNjYuMy0xOTEuNSAzNC4xLTU0LjMtMjMuOS05NC43LTczLjQtMTA1LjUtMTMxLjgtMjAuOC0xMTIuOCA2Ni0yMTIuOSAxNzYuOS0yMTIuOSA0Ni43IDAgODguNiAxOC44IDExOS4zIDQ5LjV2LTQ0aDYwdjM0OS4xem0tNzEuMy0xNDkuNGMxNi41LTcwLjktMzcuMi0xMzUuMy0xMDcuMi0xMzUuMy02MC43IDAtMTA5LjUgNDkuNS0xMDkuNSAxMDkuNSAwIDY3LjkgNTkuNyAxMjAuNCAxMjkuMSAxMDguNiA0Mi42LTcuMyA3Ny44LTQwLjUgODcuNi04Mi44bTQ0NC01Ny4ydjIwNi41aC02OS44di0yMDYuNWMwLTQzLjMtMzUuNi03OC4xLTc4LjEtNzguMS00NCAwLTc4LjggMzQuOS03OC44IDc4LjF2MjA2LjVoLTY5Ljh2LTM0OC45aDU3Ljl2MzBjMjUuMS0yMi4zIDU4LjYtMzUuNiA5My41LTM1LjYgODAuOS4xIDE0NS4xIDY2LjQgMTQ1LjEgMTQ4bTQxMC4zIDIwNi42aC01OS4zdi00NGMtNDUuOSA0NC44LTExOC4yIDY2LjMtMTkxLjUgMzQuMS01NC4zLTIzLjktOTQuNy03My40LTEwNS41LTEzMS44LTIwLjgtMTEyLjggNjYtMjEyLjkgMTc2LjktMjEyLjkgNDYuNyAwIDg4LjYgMTguOCAxMTkuMyA0OS41di00NGg2MHYzNDkuMXptLTcxLjQtMTQ5LjRjMTYuNS03MC45LTM3LjItMTM1LjMtMTA3LjItMTM1LjMtNjAuNyAwLTEwOS41IDQ5LjUtMTA5LjUgMTA5LjUgMCA2Ny45IDU5LjcgMTIwLjQgMTI5LjEgMTA4LjYgNDIuNi03LjMgNzcuOC00MC41IDg3LjYtODIuOCIgY2xpcC1wYXRoPSJ1cmwoI1NWR0lEXzRfKSIvPjwvZz48ZyBjbGFzcz0ic3QzNSI+PGRlZnM+PHBhdGggaWQ9IlNWR0lEXzVfIiBkPSJNMTIyOS42IDMyOC42cy0uNyAyLjktMS42IDcuOGMtOC4zIDIuNC0xNi42IDQuNy0yNC45IDcuNC0xMS41IDMuNS0yMi44IDcuNy0zNC4zIDExLjgtMTEuMyA0LjQtMjIuOCA4LjgtMzQgMTMuOC0yMi42IDkuNy00NSAyMC42LTY2LjkgMzIuOS0yMS4yIDExLjktNDIuMSAyNS02Mi40IDM5LjItMi45LTEuNC01LjItMi40LTUuMi0yLjQtMjA3LjMtNzkuMi0zOTEuNCAxNi4xLTM5MS40IDE2LjEtMTYuOCAyMjAuNSA4Mi44IDM1OS41IDEwMi41IDM4NC43LTQuOSAxMy42LTkuNSAyNy40LTEzLjcgNDEuMy0xNS4zIDUwLTI2LjggMTAxLjMtMzMuOSAxNTQuMy0xIDcuNi0xLjkgMTUuMy0yLjggMjMtMTkxLjUgOTQuNi0yNDguMyAyODguNS0yNDguMyAyODguNUM1NzIuNiAxNTMwLjkgNzU5IDE1NDIuMyA3NTkgMTU0Mi4zYy4yLS4xLjMtLjMuNS0uNCAyMy43IDQyLjMgNTEuMSA4Mi42IDgyIDEyMC4xIDEyLjkgMTUuNyAyNi41IDMwLjkgNDAuNiA0NS42LTU4LjMgMTY2LjcgOC4yIDMwNS40IDguMiAzMDUuNCAxNzggNi43IDI5NC45LTc3LjkgMzE5LjUtOTcuNCAxNy43IDYgMzUuNyAxMS4zIDUzLjggMTYgNTQuNyAxNC4xIDExMC43IDIyLjQgMTY2LjcgMjQuOCAxNCAuNiAyOCAuOSA0MS45LjhoNi44bDQuNC0uMSA4LjgtLjMgOC43LS40LjIuM2M4My44IDExOS42IDIzMS4zIDEzNi41IDIzMS4zIDEzNi41IDEwNC45LTExMC42IDExMC45LTIyMC4zIDExMC45LTI0NHYtMS42YzAtMi0uMS0zLjMtLjEtMy4zLS4xLTEuNy0uMS0zLjMtLjMtNS4xIDIyLTE1LjQgNDMtMzIgNjIuOS00OS44IDQyLTM4IDc4LjctODEuMiAxMDkuMS0xMjcuOSAyLjktNC40IDUuNy04LjggOC40LTEzLjMgMTE4LjcgNi44IDIwMi40LTczLjUgMjAyLjQtNzMuNS0xOS43LTEyMy43LTkwLjItMTg0LTEwNC45LTE5NS40IDAgMC0uNi0uNS0xLjUtMS4xLS44LS42LTEuNC0xLTEuNC0xLS43LS41LTEuNi0xLjEtMi42LTEuNy43LTcuNSAxLjQtMTQuOSAxLjgtMjIuMy45LTEzLjMgMS4yLTI2LjcgMS4zLTM5LjlsLS4xLTkuOS0uMS01di0yLjVjMC0zLjQtLjEtMi4xLS4xLTMuNGwtLjQtOC4zLS42LTExLjJjLS4yLTMuOS0uNS03LjItLjgtMTAuNy0uMy0zLjQtLjYtNi45LTEtMTAuM2wtMS4yLTEwLjMtMS40LTEwLjJjLTItMTMuNi00LjYtMjcuMS03LjctNDAuNC0xMi40LTUzLjMtMzMuMi0xMDMuOS02MC43LTE0OS40cy02MS43LTg1LjgtMTAwLjItMTE5LjdjLTM4LjUtMzQtODEuNy02MS4zLTEyNy04MS43LTQ1LjMtMjAuNC05Mi45LTMzLjUtMTQwLjMtMzkuNS0yMy43LTMuMS00Ny4zLTQuMy03MC43LTRsLTguNy4yLTIuMi4xYy0uNiAwLTMuMy4xLTMgLjFsLTMuNi4yLTguNy42Yy0zLjMuMi02LjcuNS05LjYuOC0xMiAxLjItMjMuOSAyLjgtMzUuNyA1LTQ3IDguOC05MS40IDI1LjgtMTMwLjUgNDkuMi0zOS4xIDIzLjQtNzMuMSA1Mi43LTEwMC44IDg1LjktMjcuNiAzMy4xLTQ5LjEgNjkuOC02My45IDEwNy44LTE0LjggMzgtMjMuMSA3Ny4yLTI1LjQgMTE1LjMtLjYgOS41LS44IDE5LS42IDI4LjQgMCAyLjMuMSA0LjcuMiA3bC4zIDcuNmMuMyA0LjYuNyA5LjEgMS4xIDEzLjYgMS45IDE5LjMgNS40IDM3LjggMTAuNiA1NS43IDEwLjMgMzUuNyAyNi45IDY4IDQ3LjMgOTUuNCAyMC40IDI3LjUgNDQuOCA1MC4yIDcwLjcgNjcuOSAyNS45IDE3LjcgNTMuNiAzMC40IDgxIDM4LjUgMjcuNSA4LjEgNTQuOCAxMS42IDgwLjUgMTEuNSAzLjIgMCA2LjQtLjEgOS42LS4yIDEuNyAwIDMuNC0uMiA1LjEtLjJsNS4xLS4zYzIuNy0uMyA1LjUtLjUgOC4yLS44LjYgMCAxLjUtLjIgMi4zLS4zbDIuNS0uM2MxLjctLjIgMy4zLS41IDUtLjcgMy40LS40IDYuMy0xLjEgOS4zLTEuNiAzLS42IDYtMS4yIDktMiA1LjktMS4zIDExLjYtMy4xIDE3LjMtNC44IDExLjItMy43IDIxLjctOC4yIDMxLjUtMTMuMnMxOC44LTEwLjcgMjcuMi0xNi42YzIuNC0xLjcgNC43LTMuNSA3LTUuMyA5LTcgMTAuNC0yMC4yIDMuMi0yOS02LjMtNy43LTE3LjEtOS43LTI1LjctNC45LTIuMSAxLjItNC4zIDIuMy02LjUgMy40LTcuNSAzLjYtMTUuMyA3LTIzLjYgOS43LTguMyAyLjYtMTYuOSA0LjgtMjUuOSA2LjQtNC41LjYtOSAxLjMtMTMuNiAxLjctMi4zLjMtNC42LjQtNyAuNC0yLjMuMS00LjguMy02LjkuMi0yLjIgMC00LjQtLjEtNi43LS4xLTIuOC0uMS01LjYtLjMtOC40LS40IDAgMC0xLjQgMC0uMy0uMWwtLjktLjEtMS45LS4yYy0xLjMtLjEtMi41LS4yLTMuOC0uNC0yLjUtLjMtNS0uNi03LjUtMS0yMC4xLTIuOC00MC41LTguNy02MC4xLTE3LjYtMTkuNy04LjktMzguNS0yMS4xLTU1LjUtMzYuNC0xNy0xNS4yLTMxLjgtMzMuNi00My40LTU0LjQtMTEuNi0yMC43LTE5LjctNDMuOC0yMy41LTY4LTEuOS0xMi4xLTIuNy0yNC42LTIuNC0zNi44LjItMy40LjMtNi43LjUtMTAuMSAwIC45LjEtLjUuMS0uNmwuMS0xLjIuMi0yLjVjLjEtMS43LjMtMy4zLjUtNSAuNy02LjYgMS43LTEzLjMgMi45LTE5LjggOS4zLTUyLjcgMzUuNy0xMDQuMSA3Ni41LTE0My4yIDEwLjItOS43IDIxLjItMTguOCAzMi45LTI2LjhzMjQuMi0xNS4yIDM3LjItMjEuMmMxMy02IDI2LjYtMTAuOSA0MC41LTE0LjcgMTMuOS0zLjcgMjguMi02LjIgNDIuNy03LjVhMjYzIDI2MyAwIDAgMSAyMS44LS45YzEuOSAwIDMuNC4xIDQuOS4xbDUuOS4yIDMuNy4xYzEuNSAwIDAgMCAuNy4xbDEuNS4xIDUuOS40YzE1LjcgMS4zIDMxLjQgMy41IDQ2LjggNyAzMC45IDYuOSA2MC45IDE4LjIgODguOSAzMy43IDU2IDMxIDEwMy43IDc5LjUgMTMzIDEzOCAxNC44IDI5LjEgMjUgNjAuNSAzMC4yIDkyLjkgMS4yIDguMSAyLjIgMTYuMyAyLjkgMjQuNWwuNSA2LjIuMyA2LjJjLjEgMi4xLjEgNC4xLjIgNi4yIDAgMiAuMSA0LjMuMSA1Ljh2NS4zbC0uMSA2Yy0uMiA0LS41IDEwLjUtLjcgMTQuNS0uNyA4LjktMS40IDE3LjktMi42IDI2LjgtMS4xIDguOC0yLjYgMTcuNi00LjIgMjYuNC0xLjggOC43LTMuNiAxNy40LTUuOSAyNi00LjMgMTcuMy05LjkgMzQuMi0xNi40IDUwLjgtMTMuMSAzMy4yLTMwLjYgNjQuNy01MS43IDkzLjgtNDIuMyA1OC4xLTEwMCAxMDUuNi0xNjUuNiAxMzUuNC0zMi44IDE0LjgtNjcuNCAyNS43LTEwMyAzMS42LTE3LjggMy0zNS44IDQuOC01My44IDUuNGwtMy4zLjFoLTIuOWwtNS44LjFoLTEzLjNjMi41IDAtLjQgMC0uMy0uMWwtMS44LS4xYy05LjctLjItMTkuMy0uNy0yOC45LTEuNC0zOC41LTIuOS03Ni42LTkuNy0xMTMuNS0yMC41LTM2LjktMTAuNy03Mi43LTI1LTEwNi42LTQzLTY3LjctMzYuMi0xMjguMi04NS44LTE3NS42LTE0NS42LTIzLjgtMjkuOC00NC42LTYxLjgtNjEuOC05NS41LTE3LjItMzMuNy0zMC43LTY5LTQwLjctMTA1LjEtOS45LTM2LjEtMTYuMS03My4xLTE4LjUtMTEwLjNsLS40LTctLjEtMS43di0xLjVsLS4xLTMuMS0uMi02LjEtLjEtMS41di02LjRsLS4xLTguN3YtNS43YzAtNC41LjItOS4xLjMtMTMuNi43LTE4LjQgMi4yLTM3LjMgNC42LTU2LjIgMi40LTE4LjkgNS41LTM3LjkgOS40LTU2LjggMy45LTE4LjggOC41LTM3LjUgMTMuNy01NS44IDEwLjUtMzYuNyAyMy42LTcyLjMgMzkuMS0xMDUuOSAzMS4xLTY3LjMgNzEuOS0xMjYuNiAxMjAuOS0xNzQuNCAxMi4yLTEyIDI0LjktMjMuMyAzOC4xLTMzLjkgMTMuMi0xMC42IDI2LjktMjAuNCA0MS0yOS42IDE0LTkuMyAyOC41LTE3LjcgNDMuNC0yNS41IDcuNC00IDE1LTcuNSAyMi42LTExLjIgMy44LTEuNyA3LjctMy40IDExLjUtNS4xIDMuOC0xLjcgNy43LTMuNCAxMS42LTQuOSAxNS41LTYuNiAzMS41LTEyLjEgNDcuNS0xNy4zIDQuMS0xLjIgOC4xLTIuNSAxMi4xLTMuNyA0LTEuMyA4LjItMi4yIDEyLjItMy40IDguMS0yLjMgMTYuNC00LjIgMjQuNi02LjMgNC4xLTEuMSA4LjMtMS44IDEyLjQtMi43IDQuMi0uOSA4LjMtMS44IDEyLjUtMi42IDQuMi0uOCA4LjQtMS41IDEyLjUtMi4zbDYuMy0xLjEgNi4zLTFjNC4yLS42IDguNC0xLjMgMTIuNi0xLjkgNC43LS44IDkuNS0xLjIgMTQuMi0xLjkgMy45LS41IDEwLjItMS4yIDE0LjEtMS43IDMtLjMgNS45LS42IDguOS0uOWw1LjktLjYgMy0uMyAzLjUtLjJjNC44LS4zIDkuNS0uNiAxNC4zLS45bDcuMS0uNXMyLjYtLjEuMy0uMWwxLjUtLjEgMy0uMWM0LjEtLjIgOC4xLS40IDEyLjItLjYgMTYuMi0uNSAzMi4zLS41IDQ4LjIgMCAzMS45IDEuMyA2My4yIDQuOCA5My42IDEwLjQgNjAuOSAxMS4zIDExOC4yIDMwLjkgMTcwIDU2LjUgNTEuOSAyNS40IDk4LjQgNTYuNiAxMzguOCA5MC41IDIuNSAyLjEgNSA0LjMgNy41IDYuNCAyLjUgMi4yIDQuOSA0LjMgNy4zIDYuNSA0LjkgNC4zIDkuNiA4LjggMTQuMyAxMy4xIDQuNyA0LjQgOS4yIDguOSAxMy44IDEzLjMgNC40IDQuNSA4LjkgOC45IDEzLjIgMTMuNSAxNy4xIDE4LjEgMzMgMzYuNSA0Ny4zIDU1IDI4LjcgMzYuOSA1MS42IDc0LjEgNjkuOSAxMDkuMyAxLjIgMi4yIDIuMyA0LjQgMy40IDYuNiAxLjEgMi4yIDIuMiA0LjQgMy4yIDYuNiAyLjEgNC4zIDQuMyA4LjYgNi4yIDEyLjkgMiA0LjMgNCA4LjUgNS45IDEyLjcgMS44IDQuMiAzLjYgOC40IDUuNCAxMi40IDYuOCAxNi41IDEzIDMyLjEgMTguMSA0NyA4LjQgMjMuOSAxNC41IDQ1LjUgMTkuMyA2NC4yIDEuOSA3LjUgOSAxMi41IDE2LjcgMTEuOCA4LS43IDE0LjEtNy4zIDE0LjMtMTUuMy40LTIwLjEtLjEtNDMuOC0yLjQtNzAuOC0zLTMzLjQtOC43LTcyLjEtMjAtMTE0LjYtMTEuMS00Mi41LTI3LjYtODktNTEuNi0xMzcuMy0yNC4xLTQ4LjItNTUuNS05OC40LTk2LjMtMTQ2LjktMTUuOS0xOS0zMy4zLTM3LjgtNTIuMS01Ni4xIDI4LTExMS40LTM0LjEtMjA4LTM0LjEtMjA4LTEwNy4yLTYuNy0xNzUuNCAzMy4zLTIwMC43IDUxLjYtNC4yLTEuOC04LjUtMy42LTEyLjgtNS40LTE4LjMtNy40LTM3LTE0LjMtNTYuMy0yMC40LTE5LjMtNi4xLTM5LTExLjctNTkuMS0xNi40LTIwLjItNC43LTQwLjctOC43LTYxLjYtMTEuOS0zLjctLjUtNy4zLTEtMTEtMS42LTQ2LjYtMTQ5LjQtMTgwLjktMjExLjktMTgwLjktMjExLjktMTQ5LjggOTQuNS0xNzguMyAyMjcuNC0xNzguMyAyMjcuNCIvPjwvZGVmcz48Y2xpcFBhdGggaWQ9IlNWR0lEXzZfIj48dXNlIG92ZXJmbG93PSJ2aXNpYmxlIiB4bGluazpocmVmPSIjU1ZHSURfNV8iLz48L2NsaXBQYXRoPjxsaW5lYXJHcmFkaWVudCBpZD0iU1ZHSURfN18iIHgxPSItODE5Ljc2NSIgeDI9Ii04MTIuNjQ5IiB5MT0iODIwMS43MSIgeTI9IjgyMDEuNzEiIGdyYWRpZW50VHJhbnNmb3JtPSJyb3RhdGUoLTkwIDk0NTk5MS4xMSAtMTE1MzEyNC43Mykgc2NhbGUoMjU1Ljc3NDIpIiBncmFkaWVudFVuaXRzPSJ1c2VyU3BhY2VPblVzZSI+PHN0b3Agb2Zmc2V0PSIwIiBzdG9wLWNvbG9yPSIjZmZmMjAwIi8+PHN0b3Agb2Zmc2V0PSIxIiBzdG9wLWNvbG9yPSIjZjE1YTI5Ii8+PC9saW5lYXJHcmFkaWVudD48cGF0aCBmaWxsPSJ1cmwoI1NWR0lEXzdfKSIgZD0iTTQxMi43IDEwMC44aDE4MzQuNHYxOTkyLjNINDEyLjd6IiBjbGlwLXBhdGg9InVybCgjU1ZHSURfNl8pIi8+PC9nPjwvc3ZnPg==;hachureGap=4;fontFamily=Architects Daughter;fontSource=https%3A%2F%2Ffonts.googleapis.com%2Fcss%3Ffamily%3DArchitects%2BDaughter;fontSize=20;" parent="1" vertex="1">
          <mxGeometry x="334.99999999999994" y="667.6999999999999" width="66.51" height="67.87" as="geometry" />
        </mxCell>
        <mxCell id="nRE7B-y5H1GmPLAHqj0j-4" value="" style="edgeStyle=orthogonalEdgeStyle;rounded=0;hachureGap=4;orthogonalLoop=1;jettySize=auto;html=1;fontFamily=Architects Daughter;fontSource=https%3A%2F%2Ffonts.googleapis.com%2Fcss%3Ffamily%3DArchitects%2BDaughter;fontSize=16;" edge="1" parent="1" source="SSDxU__HPZ5_-qfzZDtQ-2" target="SSDxU__HPZ5_-qfzZDtQ-1">
          <mxGeometry relative="1" as="geometry">
            <Array as="points">
              <mxPoint x="326" y="630" />
              <mxPoint x="368" y="630" />
            </Array>
          </mxGeometry>
        </mxCell>
        <mxCell id="SSDxU__HPZ5_-qfzZDtQ-2" value="Loki" style="shape=image;verticalLabelPosition=bottom;labelBackgroundColor=default;verticalAlign=top;aspect=fixed;imageAspect=0;image=data:image/svg+xml,PHN2ZyB4bWw6c3BhY2U9InByZXNlcnZlIiBzdHlsZT0iZW5hYmxlLWJhY2tncm91bmQ6bmV3IC0xODEuMSAtNjcgMjY0LjIgMzE4OyIgdmlld0JveD0iLTE4MS4xIC02NyAyNjQuMiAzMTgiIGhlaWdodD0iMzE4cHgiIHdpZHRoPSIyNjQuMnB4IiB5PSIwcHgiIHg9IjBweCIgeG1sbnM6eGxpbms9Imh0dHA6Ly93d3cudzMub3JnLzE5OTkveGxpbmsiIHhtbG5zPSJodHRwOi8vd3d3LnczLm9yZy8yMDAwL3N2ZyIgaWQ9IkxheWVyXzEiIHZlcnNpb249IjEuMSI+JiN4YTs8c3R5bGUgdHlwZT0idGV4dC9jc3MiPiYjeGE7CS5zdDB7ZmlsbDp1cmwoI1NWR0lEXzFfKTt9JiN4YTsJLnN0MXtmaWxsOnVybCgjU1ZHSURfMl8pO30mI3hhOwkuc3Qye2ZpbGw6dXJsKCNTVkdJRF8zXyk7fSYjeGE7CS5zdDN7ZmlsbDp1cmwoI1NWR0lEXzRfKTt9JiN4YTsJLnN0NHtmaWxsOnVybCgjU1ZHSURfNV8pO30mI3hhOwkuc3Q1e2ZpbGw6dXJsKCNTVkdJRF82Xyk7fSYjeGE7CS5zdDZ7ZmlsbDp1cmwoI1NWR0lEXzdfKTt9JiN4YTsJLnN0N3tmaWxsOnVybCgjU1ZHSURfOF8pO30mI3hhOwkuc3Q4e2ZpbGw6dXJsKCNTVkdJRF85Xyk7fSYjeGE7CS5zdDl7ZmlsbDp1cmwoI1NWR0lEXzEwXyk7fSYjeGE7CS5zdDEwe2ZpbGw6dXJsKCNTVkdJRF8xMV8pO30mI3hhOwkuc3QxMXtmaWxsOnVybCgjU1ZHSURfMTJfKTt9JiN4YTsJLnN0MTJ7ZmlsbDp1cmwoI1NWR0lEXzEzXyk7fSYjeGE7CS5zdDEze2ZpbGw6dXJsKCNTVkdJRF8xNF8pO30mI3hhOwkuc3QxNHtmaWxsOnVybCgjU1ZHSURfMTVfKTt9JiN4YTs8L3N0eWxlPiYjeGE7PGc+JiN4YTsJJiN4YTsJCTxsaW5lYXJHcmFkaWVudCBncmFkaWVudFRyYW5zZm9ybT0ibWF0cml4KDAuOTgwNSAtMC4xOTY0IDAuMTk2NCAwLjk4MDUgLTU2Ny41MzAyIC01MDkuMDkwNikiIHkyPSI1NDcuNDQzNCIgeDI9IjM0Mi42ODA0IiB5MT0iODk3LjMwNTgiIHgxPSIzNDIuNjgwNCIgZ3JhZGllbnRVbml0cz0idXNlclNwYWNlT25Vc2UiIGlkPSJTVkdJRF8xXyI+JiN4YTsJCTxzdG9wIHN0eWxlPSJzdG9wLWNvbG9yOiNGOUVDMUMiIG9mZnNldD0iMCIvPiYjeGE7CQk8c3RvcCBzdHlsZT0ic3RvcC1jb2xvcjojRjA1QTJCIiBvZmZzZXQ9IjEiLz4mI3hhOwk8L2xpbmVhckdyYWRpZW50PiYjeGE7CTxwb2x5Z29uIHBvaW50cz0iLTEyNy4zLC01OC4yIC0xMjcuNSwtNTkuMSAtMTI4LjMsLTU4LjkiIGNsYXNzPSJzdDAiLz4mI3hhOwkmI3hhOwkJPGxpbmVhckdyYWRpZW50IGdyYWRpZW50VHJhbnNmb3JtPSJtYXRyaXgoMC45ODA1IC0wLjE5NjQgMC4xOTY0IDAuOTgwNSAtNTY3LjUzMDIgLTUwOS4wOTA2KSIgeTI9IjUzNy40NzcyIiB4Mj0iMjk1LjgwNDQiIHkxPSI4ODcuMzM5NyIgeDE9IjI5NS44MDQ0IiBncmFkaWVudFVuaXRzPSJ1c2VyU3BhY2VPblVzZSIgaWQ9IlNWR0lEXzJfIj4mI3hhOwkJPHN0b3Agc3R5bGU9InN0b3AtY29sb3I6I0Y5RUMxQyIgb2Zmc2V0PSIwIi8+JiN4YTsJCTxzdG9wIHN0eWxlPSJzdG9wLWNvbG9yOiNGMDVBMkIiIG9mZnNldD0iMSIvPiYjeGE7CTwvbGluZWFyR3JhZGllbnQ+JiN4YTsJPHBvbHlnb24gcG9pbnRzPSItMTA4LjMsMjE5LjMgLTEzMC43LDIyMy44IC0xMjYuMiwyNDYuMyAtMTAzLjgsMjQxLjgiIGNsYXNzPSJzdDEiLz4mI3hhOwkmI3hhOwkJPGxpbmVhckdyYWRpZW50IGdyYWRpZW50VHJhbnNmb3JtPSJtYXRyaXgoMC45ODA1IC0wLjE5NjQgMC4xOTY0IDAuOTgwNSAtNTY3LjUzMDIgLTUwOS4wOTA2KSIgeTI9IjUzNy40NzcyIiB4Mj0iNDQyLjQzNjMiIHkxPSI4ODcuMzM5NyIgeDE9IjQ0Mi40MzYzIiBncmFkaWVudFVuaXRzPSJ1c2VyU3BhY2VPblVzZSIgaWQ9IlNWR0lEXzNfIj4mI3hhOwkJPHN0b3Agc3R5bGU9InN0b3AtY29sb3I6I0Y5RUMxQyIgb2Zmc2V0PSIwIi8+JiN4YTsJCTxzdG9wIHN0eWxlPSJzdG9wLWNvbG9yOiNGMDVBMkIiIG9mZnNldD0iMSIvPiYjeGE7CTwvbGluZWFyR3JhZGllbnQ+JiN4YTsJPHBvbHlnb24gcG9pbnRzPSItMjcuOCwxOTAgNzEuMywxNzAuMSA2Ni44LDE0Ny43IC0zMi4zLDE2Ny41IiBjbGFzcz0ic3QyIi8+JiN4YTsJJiN4YTsJCTxsaW5lYXJHcmFkaWVudCBncmFkaWVudFRyYW5zZm9ybT0ibWF0cml4KDAuOTgwNSAtMC4xOTY0IDAuMTk2NCAwLjk4MDUgLTU2Ny41MzAyIC01MDkuMDkwNikiIHkyPSI1MzcuNDc3MiIgeDI9IjM2Ny41MDU2IiB5MT0iODg3LjMzOTciIHgxPSIzNjcuNTA1NiIgZ3JhZGllbnRVbml0cz0idXNlclNwYWNlT25Vc2UiIGlkPSJTVkdJRF80XyI+JiN4YTsJCTxzdG9wIHN0eWxlPSJzdG9wLWNvbG9yOiNGOUVDMUMiIG9mZnNldD0iMCIvPiYjeGE7CQk8c3RvcCBzdHlsZT0ic3RvcC1jb2xvcjojRjA1QTJCIiBvZmZzZXQ9IjEiLz4mI3hhOwk8L2xpbmVhckdyYWRpZW50PiYjeGE7CTxwb2x5Z29uIHBvaW50cz0iLTY3LjUsMTc0LjYgLTYzLDE5NyAtNDAuNSwxOTIuNSAtNDUsMTcwLjEiIGNsYXNzPSJzdDMiLz4mI3hhOwkmI3hhOwkJPGxpbmVhckdyYWRpZW50IGdyYWRpZW50VHJhbnNmb3JtPSJtYXRyaXgoMC45ODA1IC0wLjE5NjQgMC4xOTY0IDAuOTgwNSAtNTY3LjUzMDIgLTUwOS4wOTA2KSIgeTI9IjUzNy40NzcyIiB4Mj0iMzMxLjY1NDkiIHkxPSI4ODcuMzM5NyIgeDE9IjMzMS42NTQ5IiBncmFkaWVudFVuaXRzPSJ1c2VyU3BhY2VPblVzZSIgaWQ9IlNWR0lEXzVfIj4mI3hhOwkJPHN0b3Agc3R5bGU9InN0b3AtY29sb3I6I0Y5RUMxQyIgb2Zmc2V0PSIwIi8+JiN4YTsJCTxzdG9wIHN0eWxlPSJzdG9wLWNvbG9yOiNGMDVBMkIiIG9mZnNldD0iMSIvPiYjeGE7CTwvbGluZWFyR3JhZGllbnQ+JiN4YTsJPHBvbHlnb24gcG9pbnRzPSItNjguNiwyMzQuNyAtNzMuMSwyMTIuMyAtOTUuNiwyMTYuOCAtOTEuMSwyMzkuMiIgY2xhc3M9InN0NCIvPiYjeGE7CSYjeGE7CQk8bGluZWFyR3JhZGllbnQgZ3JhZGllbnRUcmFuc2Zvcm09Im1hdHJpeCgwLjk4MDUgLTAuMTk2NCAwLjE5NjQgMC45ODA1IC01NjcuNTMwMiAtNTA5LjA5MDYpIiB5Mj0iNTM3LjQ3NzIiIHgyPSIyOTUuODA0NCIgeTE9Ijg4Ny4zMzk3IiB4MT0iMjk1LjgwNDQiIGdyYWRpZW50VW5pdHM9InVzZXJTcGFjZU9uVXNlIiBpZD0iU1ZHSURfNl8iPiYjeGE7CQk8c3RvcCBzdHlsZT0ic3RvcC1jb2xvcjojRjlFQzFDIiBvZmZzZXQ9IjAiLz4mI3hhOwkJPHN0b3Agc3R5bGU9InN0b3AtY29sb3I6I0YwNUEyQiIgb2Zmc2V0PSIxIi8+JiN4YTsJPC9saW5lYXJHcmFkaWVudD4mI3hhOwk8cG9seWdvbiBwb2ludHM9Ii0xMzMuMywyMTEuMSAtMTEwLjgsMjA2LjYgLTExNS4zLDE4NC4yIC0xMzcuOCwxODguNyIgY2xhc3M9InN0NSIvPiYjeGE7CSYjeGE7CQk8bGluZWFyR3JhZGllbnQgZ3JhZGllbnRUcmFuc2Zvcm09Im1hdHJpeCgwLjk4MDUgLTAuMTk2NCAwLjE5NjQgMC45ODA1IC01NjcuNTMwMiAtNTA5LjA5MDYpIiB5Mj0iNTM3LjQ3NzIiIHgyPSI0NDIuNDM2MyIgeTE9Ijg4Ny4zMzk3IiB4MT0iNDQyLjQzNjMiIGdyYWRpZW50VW5pdHM9InVzZXJTcGFjZU9uVXNlIiBpZD0iU1ZHSURfN18iPiYjeGE7CQk8c3RvcCBzdHlsZT0ic3RvcC1jb2xvcjojRjlFQzFDIiBvZmZzZXQ9IjAiLz4mI3hhOwkJPHN0b3Agc3R5bGU9InN0b3AtY29sb3I6I0YwNUEyQiIgb2Zmc2V0PSIxIi8+JiN4YTsJPC9saW5lYXJHcmFkaWVudD4mI3hhOwk8cG9seWdvbiBwb2ludHM9IjczLjgsMTgyLjggLTI1LjMsMjAyLjcgLTIwLjgsMjI1LjEgNzguMywyMDUuMyIgY2xhc3M9InN0NiIvPiYjeGE7CSYjeGE7CQk8bGluZWFyR3JhZGllbnQgZ3JhZGllbnRUcmFuc2Zvcm09Im1hdHJpeCgwLjk4MDUgLTAuMTk2NCAwLjE5NjQgMC45ODA1IC01NjcuNTMwMiAtNTA5LjA5MDYpIiB5Mj0iNTM3LjQ3NzIiIHgyPSIzNjcuNTA1NiIgeTE9Ijg4Ny4zMzk3IiB4MT0iMzY3LjUwNTYiIGdyYWRpZW50VW5pdHM9InVzZXJTcGFjZU9uVXNlIiBpZD0iU1ZHSURfOF8iPiYjeGE7CQk8c3RvcCBzdHlsZT0ic3RvcC1jb2xvcjojRjlFQzFDIiBvZmZzZXQ9IjAiLz4mI3hhOwkJPHN0b3Agc3R5bGU9InN0b3AtY29sb3I6I0YwNUEyQiIgb2Zmc2V0PSIxIi8+JiN4YTsJPC9saW5lYXJHcmFkaWVudD4mI3hhOwk8cG9seWdvbiBwb2ludHM9Ii02MC40LDIwOS43IC01NS45LDIzMi4yIC0zMy41LDIyNy43IC0zOCwyMDUuMiIgY2xhc3M9InN0NyIvPiYjeGE7CSYjeGE7CQk8bGluZWFyR3JhZGllbnQgZ3JhZGllbnRUcmFuc2Zvcm09Im1hdHJpeCgwLjk4MDUgLTAuMTk2NCAwLjE5NjQgMC45ODA1IC01NjcuNTMwMiAtNTA5LjA5MDYpIiB5Mj0iNTM3LjQ3NzIiIHgyPSIzMzEuNjU0OSIgeTE9Ijg4Ny4zMzk3IiB4MT0iMzMxLjY1NDkiIGdyYWRpZW50VW5pdHM9InVzZXJTcGFjZU9uVXNlIiBpZD0iU1ZHSURfOV8iPiYjeGE7CQk8c3RvcCBzdHlsZT0ic3RvcC1jb2xvcjojRjlFQzFDIiBvZmZzZXQ9IjAiLz4mI3hhOwkJPHN0b3Agc3R5bGU9InN0b3AtY29sb3I6I0YwNUEyQiIgb2Zmc2V0PSIxIi8+JiN4YTsJPC9saW5lYXJHcmFkaWVudD4mI3hhOwk8cG9seWdvbiBwb2ludHM9Ii05OC4xLDIwNC4xIC03NS43LDE5OS42IC04MC4yLDE3Ny4xIC0xMDIuNiwxODEuNiIgY2xhc3M9InN0OCIvPiYjeGE7CSYjeGE7CQk8bGluZWFyR3JhZGllbnQgZ3JhZGllbnRUcmFuc2Zvcm09Im1hdHJpeCgwLjk4MDUgLTAuMTk2NCAwLjE5NjQgMC45ODA1IC01NjcuNTMwMiAtNTA5LjA5MDYpIiB5Mj0iNTQ4LjcyOTYiIHgyPSIyODkuMTkwOSIgeTE9Ijg4MC41NDQzIiB4MT0iMjg5LjE5MDkiIGdyYWRpZW50VW5pdHM9InVzZXJTcGFjZU9uVXNlIiBpZD0iU1ZHSURfMTBfIj4mI3hhOwkJPHN0b3Agc3R5bGU9InN0b3AtY29sb3I6I0Y5RUMxQyIgb2Zmc2V0PSIwIi8+JiN4YTsJCTxzdG9wIHN0eWxlPSJzdG9wLWNvbG9yOiNGMDVBMkIiIG9mZnNldD0iMSIvPiYjeGE7CTwvbGluZWFyR3JhZGllbnQ+JiN4YTsJPHBvbHlnb24gcG9pbnRzPSItMTQwLjMsMTc2IC0xMzAuOCwxNzQuMSAtMTY2LjgsLTUuNiAtMTc2LjMsLTMuNyIgY2xhc3M9InN0OSIvPiYjeGE7CSYjeGE7CQk8bGluZWFyR3JhZGllbnQgZ3JhZGllbnRUcmFuc2Zvcm09Im1hdHJpeCgwLjk4MDUgLTAuMTk2NCAwLjE5NjQgMC45ODA1IC01NjcuNTMwMiAtNTA5LjA5MDYpIiB5Mj0iNTMzLjQ5MjIiIHgyPSIzMDIuNDg3MiIgeTE9Ijg4OS43NDYzIiB4MT0iMzAyLjQ4NzIiIGdyYWRpZW50VW5pdHM9InVzZXJTcGFjZU9uVXNlIiBpZD0iU1ZHSURfMTFfIj4mI3hhOwkJPHN0b3Agc3R5bGU9InN0b3AtY29sb3I6I0Y5RUMxQyIgb2Zmc2V0PSIwIi8+JiN4YTsJCTxzdG9wIHN0eWxlPSJzdG9wLWNvbG9yOiNGMDVBMkIiIG9mZnNldD0iMSIvPiYjeGE7CTwvbGluZWFyR3JhZGllbnQ+JiN4YTsJPHBvbHlnb24gcG9pbnRzPSItMTI3LjMsMTczLjQgLTExNy44LDE3MS41IC0xNTYuNCwtMjEuNCAtMTY1LjksLTE5LjUiIGNsYXNzPSJzdDEwIi8+JiN4YTsJJiN4YTsJCTxsaW5lYXJHcmFkaWVudCBncmFkaWVudFRyYW5zZm9ybT0ibWF0cml4KDAuOTgwNSAtMC4xOTY0IDAuMTk2NCAwLjk4MDUgLTU2Ny41MzAyIC01MDkuMDkwNikiIHkyPSI1MDEuOTE3OCIgeDI9IjMyNS4xODg5IiB5MT0iOTA4LjgxNDUiIHgxPSIzMjUuMTg4OSIgZ3JhZGllbnRVbml0cz0idXNlclNwYWNlT25Vc2UiIGlkPSJTVkdJRF8xMl8iPiYjeGE7CQk8c3RvcCBzdHlsZT0ic3RvcC1jb2xvcjojRjlFQzFDIiBvZmZzZXQ9IjAiLz4mI3hhOwkJPHN0b3Agc3R5bGU9InN0b3AtY29sb3I6I0YwNUEyQiIgb2Zmc2V0PSIxIi8+JiN4YTsJPC9saW5lYXJHcmFkaWVudD4mI3hhOwk8cG9seWdvbiBwb2ludHM9Ii0xMDUsMTY4LjkgLTk1LjUsMTY3IC0xMzkuNywtNTMuMyAtMTQ5LjIsLTUxLjQiIGNsYXNzPSJzdDExIi8+JiN4YTsJJiN4YTsJCTxsaW5lYXJHcmFkaWVudCBncmFkaWVudFRyYW5zZm9ybT0ibWF0cml4KDAuOTgwNSAtMC4xOTY0IDAuMTk2NCAwLjk4MDUgLTU2Ny41MzAyIC01MDkuMDkwNikiIHkyPSI1MjIuNzE4MSIgeDI9IjMzOC40ODUyIiB5MT0iODk2LjI1MjkiIHgxPSIzMzguNDg1MiIgZ3JhZGllbnRVbml0cz0idXNlclNwYWNlT25Vc2UiIGlkPSJTVkdJRF8xM18iPiYjeGE7CQk8c3RvcCBzdHlsZT0ic3RvcC1jb2xvcjojRjlFQzFDIiBvZmZzZXQ9IjAiLz4mI3hhOwkJPHN0b3Agc3R5bGU9InN0b3AtY29sb3I6I0YwNUEyQiIgb2Zmc2V0PSIxIi8+JiN4YTsJPC9saW5lYXJHcmFkaWVudD4mI3hhOwk8cG9seWdvbiBwb2ludHM9Ii05MiwxNjYuMyAtODIuNSwxNjQuNCAtMTIzLC0zNy45IC0xMzIuNSwtMzYiIGNsYXNzPSJzdDEyIi8+JiN4YTsJJiN4YTsJCTxsaW5lYXJHcmFkaWVudCBncmFkaWVudFRyYW5zZm9ybT0ibWF0cml4KDAuOTgwNSAtMC4xOTY0IDAuMTk2NCAwLjk4MDUgLTU2Ny41MzAyIC01MDkuMDkwNikiIHkyPSI1NjQuODgwOCIgeDI9IjM2MC44OTg4IiB5MT0iODcwLjc5MDMiIHgxPSIzNjAuODk4OCIgZ3JhZGllbnRVbml0cz0idXNlclNwYWNlT25Vc2UiIGlkPSJTVkdJRF8xNF8iPiYjeGE7CQk8c3RvcCBzdHlsZT0ic3RvcC1jb2xvcjojRjlFQzFDIiBvZmZzZXQ9IjAiLz4mI3hhOwkJPHN0b3Agc3R5bGU9InN0b3AtY29sb3I6I0YwNUEyQiIgb2Zmc2V0PSIxIi8+JiN4YTsJPC9saW5lYXJHcmFkaWVudD4mI3hhOwk8cG9seWdvbiBwb2ludHM9Ii03MCwxNjEuOSAtNjAuNSwxNjAgLTkzLjcsLTUuNyAtMTAzLjIsLTMuOCIgY2xhc3M9InN0MTMiLz4mI3hhOwkmI3hhOwkJPGxpbmVhckdyYWRpZW50IGdyYWRpZW50VHJhbnNmb3JtPSJtYXRyaXgoMC45ODA1IC0wLjE5NjQgMC4xOTY0IDAuOTgwNSAtNTY3LjUzMDIgLTUwOS4wOTA2KSIgeTI9IjU1Ny41NzI2IiB4Mj0iMzc0LjE5NTEiIHkxPSI4NzUuMjAzOSIgeDE9IjM3NC4xOTUxIiBncmFkaWVudFVuaXRzPSJ1c2VyU3BhY2VPblVzZSIgaWQ9IlNWR0lEXzE1XyI+JiN4YTsJCTxzdG9wIHN0eWxlPSJzdG9wLWNvbG9yOiNGOUVDMUMiIG9mZnNldD0iMCIvPiYjeGE7CQk8c3RvcCBzdHlsZT0ic3RvcC1jb2xvcjojRjA1QTJCIiBvZmZzZXQ9IjEiLz4mI3hhOwk8L2xpbmVhckdyYWRpZW50PiYjeGE7CTxwb2x5Z29uIHBvaW50cz0iLTU3LDE1OS4zIC00Ny41LDE1Ny40IC04MS45LC0xNC42IC05MS40LC0xMi43IiBjbGFzcz0ic3QxNCIvPiYjeGE7PC9nPiYjeGE7PC9zdmc+;" parent="1" vertex="1">
          <mxGeometry x="298.98" y="504.82" width="54.11" height="65.18" as="geometry" />
        </mxCell>
        <mxCell id="nRE7B-y5H1GmPLAHqj0j-5" value="" style="edgeStyle=orthogonalEdgeStyle;rounded=0;hachureGap=4;orthogonalLoop=1;jettySize=auto;html=1;fontFamily=Architects Daughter;fontSource=https%3A%2F%2Ffonts.googleapis.com%2Fcss%3Ffamily%3DArchitects%2BDaughter;fontSize=16;" edge="1" parent="1" source="-kf4WEdqDN9BY3En3-5L-1" target="SSDxU__HPZ5_-qfzZDtQ-1">
          <mxGeometry relative="1" as="geometry" />
        </mxCell>
        <mxCell id="-kf4WEdqDN9BY3En3-5L-1" value="" style="shape=image;verticalLabelPosition=bottom;labelBackgroundColor=default;verticalAlign=top;aspect=fixed;imageAspect=0;image=data:image/svg+xml,PHN2ZyB4bWxucz0iaHR0cDovL3d3dy53My5vcmcvMjAwMC9zdmciIHJvbGU9ImltZyIgdmlld0JveD0iLTQuNDcgLTMuOTcgNDQwLjQ0IDM4MS42OSI+PHRpdGxlPlByb21ldGhldXMgbG9nbzwvdGl0bGU+PHN0eWxlPnN2ZyB7ZW5hYmxlLWJhY2tncm91bmQ6bmV3IDAgMCA0MzIgMzczfTwvc3R5bGU+PHBhdGggZmlsbD0iIzljOWM5ZCIgZD0iTTguMSAzNDUuOXYyMi41aC00di01NS45aDE0LjRjNi42IDAgMTEuNSAxLjQgMTQuOCA0LjMgMy4zIDIuOSA1IDcgNSAxMi4zIDAgMi40LS41IDQuNy0xLjQgNi44LS45IDIuMS0yLjIgMy44LTMuOSA1LjMtMS43IDEuNS0zLjggMi42LTYuMiAzLjUtMi40LjgtNS4yIDEuMi04LjMgMS4ySDguMXptMC0zLjJoMTAuNGMyLjUgMCA0LjctLjMgNi42LTEgMS45LS43IDMuNi0xLjYgNS0yLjggMS40LTEuMiAyLjQtMi42IDMuMS00LjMuNy0xLjYgMS4xLTMuNCAxLjEtNS40IDAtNC4zLTEuMy03LjYtNC05LjktMi42LTIuMy02LjYtMy41LTExLjgtMy41SDguMXYyNi45em00My42IDI1Ljh2LTM5LjNoMmMuNCAwIC44LjEgMSAuMy4yLjIuMy41LjMuOWwuMyA4LjNjMS4zLTMuMiAyLjktNS43IDUuMS03LjUgMi4xLTEuOCA0LjctMi43IDcuOC0yLjcgMS4yIDAgMi4zLjEgMy4zLjRzMS45LjYgMi44IDEuMWwtLjUgMi42Yy0uMS40LS4zLjYtLjguNi0uMiAwLS40LS4xLS43LS4yLS4zLS4xLS43LS4yLTEuMS0uNC0uNC0uMS0xLS4yLTEuNi0uNC0uNi0uMS0xLjQtLjItMi4yLS4yLTMgMC01LjQuOS03LjMgMi44LTEuOSAxLjgtMy41IDQuNS00LjYgOHYyNS42bC0zLjguMXptNTAuNS00MGMyLjggMCA1LjMuNSA3LjYgMS40IDIuMiAxIDQuMSAyLjMgNS42IDQuMXMyLjcgMy45IDMuNSA2LjRjLjggMi41IDEuMiA1LjMgMS4yIDguNCAwIDMuMS0uNCA1LjktMS4yIDguMy0uOCAyLjUtMiA0LjYtMy41IDYuNC0xLjUgMS44LTMuNCAzLjEtNS42IDQuMS0yLjIuOS00LjcgMS40LTcuNiAxLjQtMi44IDAtNS4zLS41LTcuNi0xLjQtMi4yLS45LTQuMS0yLjMtNS42LTQuMXMtMi43LTMuOS0zLjUtNi40Yy0uOC0yLjUtMS4yLTUuMy0xLjItOC4zIDAtMy4xLjQtNS45IDEuMi04LjQuOC0yLjUgMi00LjYgMy41LTYuNCAxLjUtMS44IDMuNC0zLjEgNS42LTQuMSAyLjItLjkgNC44LTEuNCA3LjYtMS40em0wIDM3LjVjMi4zIDAgNC40LS40IDYuMS0xLjIgMS44LS44IDMuMi0yIDQuNC0zLjUgMS4yLTEuNSAyLTMuMyAyLjYtNS40cy45LTQuNS45LTcuMWMwLTIuNi0uMy01LS45LTcuMS0uNi0yLjEtMS41LTQtMi42LTUuNS0xLjItMS41LTIuNi0yLjctNC40LTMuNS0xLjgtLjgtMy44LTEuMi02LjEtMS4ycy00LjQuNC02LjEgMS4yYy0xLjguOC0zLjIgMi00LjQgMy41LTEuMiAxLjUtMi4xIDMuMy0yLjYgNS41LS42IDIuMS0uOSA0LjUtLjkgNy4xIDAgMi42LjMgNSAuOSA3LjEuNiAyLjEgMS41IDMuOSAyLjYgNS40IDEuMiAxLjUgMi42IDIuNyA0LjQgMy41IDEuNy44IDMuNyAxLjIgNi4xIDEuMnptMzAuOSAyLjV2LTM5LjNoMi4xYy43IDAgMS4xLjMgMS4yIDFsLjQgNS43Yy44LTEuMSAxLjYtMi4xIDIuNS0zIC45LS45IDEuOC0xLjcgMi44LTIuMyAxLS42IDItMS4xIDMuMi0xLjUgMS4xLS40IDIuMy0uNSAzLjUtLjUgMi45IDAgNS4yLjggNi45IDIuNSAxLjcgMS43IDIuOSA0IDMuNSA3IC41LTEuNiAxLjEtMyAyLTQuMi45LTEuMiAxLjgtMi4yIDIuOS0yLjkgMS4xLS44IDIuMy0xLjQgMy42LTEuN3MyLjYtLjYgNC0uNmMxLjkgMCAzLjcuMyA1LjIgMSAxLjYuNiAyLjkgMS42IDQgMi45IDEuMSAxLjMgMS45IDIuOCAyLjUgNC43LjYgMS44LjkgMy45LjkgNi4zdjI1LjFoLTMuOHYtMjUuMWMwLTMuOC0uOC02LjgtMi41LTguOC0xLjctMi00LTMtNy4xLTMtMS40IDAtMi43LjItMy45LjhzLTIuNCAxLjItMy4zIDIuMmMtMSAxLTEuNyAyLjItMi4zIDMuNy0uNiAxLjUtLjggMy4yLS44IDUuMXYyNS4xaC0zLjh2LTI1LjFjMC0zLjgtLjgtNi43LTIuMy04LjgtMS41LTItMy44LTMtNi43LTMtMi4xIDAtNC4xLjYtNS45IDEuOS0xLjggMS4zLTMuNCAzLTQuOSA1LjN2MjkuN2wtMy45LS4yem04MC44LTQwYzIuMiAwIDQuMy40IDYuMSAxLjEgMS45LjggMy41IDEuOSA0LjkgMy4zIDEuNCAxLjUgMi41IDMuMyAzLjIgNS40LjggMi4xIDEuMiA0LjYgMS4yIDcuMyAwIC42LS4xIDEtLjMgMS4yLS4yLjItLjQuMy0uOC4zaC0yOC40di43YzAgMi45LjMgNS41IDEgNy44LjcgMi4yIDEuNyA0LjEgMi45IDUuNiAxLjMgMS41IDIuOCAyLjcgNC42IDMuNCAxLjguOCAzLjggMS4xIDYgMS4xIDIgMCAzLjctLjIgNS4xLS43IDEuNC0uNCAyLjctLjkgMy42LTEuNSAxLS41IDEuOC0xIDIuNC0xLjUuNi0uNCAxLS43IDEuMy0uNy4zIDAgLjYuMS44LjRsMSAxLjNjLS42LjgtMS41IDEuNS0yLjUgMi4yLTEgLjctMi4yIDEuMy0zLjUgMS44LTEuMy41LTIuNi45LTQuMSAxLjItMS41LjMtMi45LjQtNC40LjQtMi43IDAtNS4xLS41LTcuMy0xLjQtMi4yLS45LTQuMS0yLjMtNS43LTQuMS0xLjYtMS44LTIuOC00LTMuNy02LjYtLjktMi42LTEuMy01LjYtMS4zLTguOSAwLTIuOC40LTUuNCAxLjItNy44LjgtMi40IDItNC40IDMuNS02LjIgMS41LTEuNyAzLjQtMy4xIDUuNi00IDIuMy0uNiA0LjgtMS4xIDcuNi0xLjF6bTAgMi44Yy0yIDAtMy44LjMtNS40LjktMS42LjYtMyAxLjUtNC4yIDIuNy0xLjIgMS4yLTIuMSAyLjYtMi44IDQuMy0uNyAxLjctMS4yIDMuNS0xLjQgNS42SDIyNmMwLTIuMS0uMy00LS45LTUuNy0uNi0xLjctMS40LTMuMS0yLjQtNC4ycy0yLjMtMi0zLjgtMi43Yy0xLjUtLjYtMy4yLS45LTUtLjl6bTM3LjcgMzcuOGMtMi43IDAtNC43LS43LTYuMi0yLjItMS41LTEuNS0yLjItMy44LTIuMi02Ljh2LTI2LjloLTUuNmMtLjMgMC0uNS0uMS0uNy0uMi0uMi0uMi0uMy0uNC0uMy0uN3YtMS41bDYuNy0uNS45LTE0LjFjMC0uMi4xLS40LjMtLjYuMi0uMi40LS4zLjctLjNoMS44djE1aDEyLjR2Mi44SDI0N3YyNi43YzAgMS4xLjEgMiAuNCAyLjguMy44LjcgMS40IDEuMSAxLjlzMS4xLjkgMS43IDEuMWMuNy4yIDEuNC40IDIuMS40LjkgMCAxLjgtLjEgMi41LS40LjctLjMgMS4zLS42IDEuOC0uOS41LS4zLjktLjYgMS4yLS45LjMtLjMuNi0uNC44LS40LjIgMCAuNC4xLjYuNGwxIDEuN2MtMSAxLjEtMi4zIDItMy44IDIuNy0xLjUuNS0zLjEuOS00LjguOXptMjAuNy0uNlYzMTFoMy44djI0LjljMS44LTIuMiAzLjktNCA2LjItNS40IDIuMy0xLjMgNC45LTIgNy44LTIgMi4yIDAgNC4xLjMgNS43IDEgMS42LjcgMyAxLjcgNC4xIDMgMS4xIDEuMyAxLjkgMi44IDIuNCA0LjcuNiAxLjguOCAzLjkuOCA2LjJ2MjUuMWgtMy44di0yNS4xYzAtMy43LS44LTYuNi0yLjUtOC43LTEuNy0yLjEtNC4zLTMuMS03LjctMy4xLTIuNiAwLTUgLjctNy4yIDJzLTQuMiAzLjItNS45IDUuNXYyOS41aC0zLjd6bTYwLjctNDBjMi4yIDAgNC4zLjQgNi4xIDEuMSAxLjkuOCAzLjUgMS45IDQuOSAzLjMgMS40IDEuNSAyLjUgMy4zIDMuMiA1LjQuOCAyLjEgMS4yIDQuNiAxLjIgNy4zIDAgLjYtLjEgMS0uMyAxLjItLjIuMi0uNC4zLS44LjNIMzE5di43YzAgMi45LjMgNS41IDEgNy44LjcgMi4yIDEuNyA0LjEgMi45IDUuNiAxLjMgMS41IDIuOCAyLjcgNC42IDMuNCAxLjguOCAzLjggMS4xIDYgMS4xIDIgMCAzLjctLjIgNS4xLS43IDEuNC0uNCAyLjctLjkgMy42LTEuNSAxLS41IDEuOC0xIDIuNC0xLjUuNi0uNCAxLS43IDEuMy0uNy4zIDAgLjYuMS44LjRsMSAxLjNjLS42LjgtMS41IDEuNS0yLjUgMi4yLTEgLjctMi4yIDEuMy0zLjUgMS44LTEuMy41LTIuNi45LTQuMSAxLjItMS41LjMtMi45LjQtNC40LjQtMi43IDAtNS4xLS41LTcuMy0xLjQtMi4yLS45LTQuMS0yLjMtNS43LTQuMS0xLjYtMS44LTIuOC00LTMuNy02LjYtLjktMi42LTEuMy01LjYtMS4zLTguOSAwLTIuOC40LTUuNCAxLjItNy44LjgtMi40IDItNC40IDMuNS02LjIgMS41LTEuNyAzLjQtMy4xIDUuNi00IDIuMi0uNiA0LjctMS4xIDcuNS0xLjF6bTAgMi44Yy0yIDAtMy44LjMtNS40LjktMS42LjYtMyAxLjUtNC4yIDIuNy0xLjIgMS4yLTIuMSAyLjYtMi44IDQuMy0uNyAxLjctMS4yIDMuNS0xLjQgNS42SDM0NWMwLTIuMS0uMy00LS45LTUuNy0uNi0xLjctMS40LTMuMS0yLjQtNC4ycy0yLjMtMi0zLjgtMi43Yy0xLjUtLjYtMy4xLS45LTQuOS0uOXptMjkuOS0yLjF2MjUuMWMwIDMuNy44IDYuNiAyLjUgOC43IDEuNyAyLjEgNC4zIDMuMSA3LjcgMy4xIDIuNiAwIDUtLjcgNy4yLTJzNC4yLTMuMSA2LTUuNHYtMjkuNWgzLjh2MzkuM0gzODhjLS43IDAtMS4xLS4zLTEuMS0xbC0uNC01LjhjLTEuOCAyLjMtMy45IDQuMS02LjMgNS41LTIuNCAxLjQtNSAyLjEtOCAyLjEtMi4yIDAtNC4xLS4zLTUuNy0xcy0zLTEuNy00LjEtM2MtMS4xLTEuMy0xLjktMi44LTIuNS00LjctLjYtMS44LS44LTMuOS0uOC02LjJ2LTI1LjFsMy44LS4xem02My4xIDQuOWMtLjIuNC0uNS42LS45LjYtLjMgMC0uNy0uMi0xLjEtLjUtLjUtLjMtMS4xLS43LTEuOC0xLjEtLjctLjQtMS43LS44LTIuOC0xLjEtMS4xLS4zLTIuNC0uNS00LS41LTEuNCAwLTIuNy4yLTMuOS42LTEuMi40LTIuMiAxLTMgMS42LS44LjctMS41IDEuNS0xLjkgMi40LS41LjktLjcgMS45LS43IDIuOSAwIDEuMi4zIDIuMy45IDMuMS42LjggMS41IDEuNSAyLjUgMi4xIDEgLjYgMi4yIDEuMSAzLjUgMS41IDEuMy40IDIuNi44IDQgMS4zIDEuNC40IDIuNy45IDQgMS40IDEuMy41IDIuNSAxLjIgMy41IDEuOSAxIC44IDEuOSAxLjcgMi41IDIuOC42IDEuMS45IDIuNS45IDQgMCAxLjctLjMgMy4zLS45IDQuOHMtMS41IDIuOC0yLjcgMy44LTIuNiAxLjktNC4zIDIuNi0zLjcuOS01LjguOWMtMi44IDAtNS4xLS40LTcuMS0xLjNzLTMuOC0yLTUuNC0zLjVsLjktMS4zYy4xLS4yLjMtLjQuNC0uNS4yLS4xLjQtLjIuNy0uMi4zIDAgLjguMiAxLjMuNi41LjQgMS4xLjkgMiAxLjQuOC41IDEuOC45IDMgMS40IDEuMi40IDIuNy42IDQuNC42IDEuNyAwIDMuMS0uMiA0LjQtLjcgMS4zLS41IDIuMy0xLjEgMy4yLTEuOS44LS44IDEuNS0xLjcgMS45LTIuOC40LTEuMS43LTIuMi43LTMuNCAwLTEuMy0uMy0yLjQtLjktMy4zLS42LS45LTEuNS0xLjYtMi41LTIuMi0xLS42LTIuMi0xLjEtMy41LTEuNS0xLjMtLjQtMi42LS44LTQtMS4zLTEuNC0uNC0yLjctLjktNC0xLjQtMS4zLS41LTIuNS0xLjEtMy41LTEuOS0xLS44LTEuOS0xLjctMi41LTIuOC0uNi0xLjEtLjktMi41LS45LTQuMSAwLTEuNC4zLTIuNy45LTQgLjYtMS4zIDEuNS0yLjQgMi42LTMuNHMyLjUtMS44IDQuMS0yLjNjMS42LS42IDMuNC0uOSA1LjQtLjkgMi40IDAgNC41LjMgNi40IDEgMS45LjcgMy42IDEuOCA1LjEgMy4ybC0xLjEgMS40eiIvPjxwYXRoIGZpbGw9IiNlNzUyMjUiIGQ9Ik0yMTYuMiA0LjZjNzQuNCAwIDEzNS40IDYwLjMgMTM1LjMgMTMzLjYtLjEgNzQuNS02MC45IDEzMy45LTEzNi45IDEzMy45LTc0LjItLjEtMTM0LjMtNjAuNC0xMzQuMy0xMzQuOS4xLTcyLjkgNjEuMy0xMzIuNiAxMzUuOS0xMzIuNnptLTQxLjEgNDYuOWMxLjcgOC4zIDAgMTYuMS0yLjUgMjMuOC0xLjcgNS4zLTQuMiAxMC40LTUuNiAxNS44LTIuNCA4LjktNS4xIDE3LjgtNi4xIDI2LjgtMS40IDEzIDMuNyAyNC41IDEyLjUgMzUuOS0xNC4zLTMtMjcuMy01LjctNDAuNS04LjUuMSAxLjMgMCAxLjguMSAyLjIgMy44IDExLjIgMTAuNiAyMC42IDE4LjIgMjkuNi44LjkgMi42IDEuNCA0IDEuNCA0MC40LjEgODAuNy4xIDEyMS4xIDAgMS4zIDAgMi45LS4yIDMuNy0xIDguNy05IDE1LjMtMTkuMyAxOS40LTMyLjMtMTQuOCAyLjktMjguOSA1LjYtNDIuOSA4LjMgMi44LTUuNSA2LjEtMTAuNCA3LjktMTUuNyA2LjMtMTguMiAzLjctMzUuOC01LjQtNTIuNC03LjMtMTMuMy0xNC4xLTI2LjYtMTAuNC00Mi42QzI0MC45IDUwLjQgMjM3LjkgNjAgMjM2IDcwYy0xLjkgOS44LTIuOSAxOS43LTQuNCAyOS43LS4yLS4zLS41LS41LS41LS44LS4yLTEtLjMtMi4xLS40LTMuMS0uOS0xNi4zLTQuMS0zMi0xMC44LTQ2LjktNC04LjgtOC40LTE3LjgtNC4zLTI4LjMtMi44IDEuNS01LjMgMi45LTcuMSA1LTUuNCA2LjItNy42IDEzLjUtOC4xIDIxLjYtLjUgNi45LTEuMiAxMy45LTIuNCAyMC43LTEuNCA3LjEtMy41IDE0LjEtOC4zIDIwLjctMS44LTE0LjMtMi0yOC4yLTE0LjYtMzcuMXptMTA0LjEgMTM5LjNIMTUyLjZ2MjEuOWgxMjYuNnYtMjEuOXptLTEwMS41IDMzLjFjLS4xIDE4LjIgMTguNiAzMS44IDQxLjYgMzAuOCAxOS4xLS44IDM2LTE1LjggMzQuNi0zMC44aC03Ni4yeiIvPjwvc3ZnPg==;sketch=1;hachureGap=4;jiggle=2;curveFitting=1;fontFamily=Architects Daughter;fontSource=https%3A%2F%2Ffonts.googleapis.com%2Fcss%3Ffamily%3DArchitects%2BDaughter;fontSize=20;" parent="1" vertex="1">
          <mxGeometry x="363.85999999999996" y="510" width="95.14" height="82.3" as="geometry" />
        </mxCell>
        <mxCell id="nRE7B-y5H1GmPLAHqj0j-1" value="" style="edgeStyle=orthogonalEdgeStyle;rounded=0;hachureGap=4;orthogonalLoop=1;jettySize=auto;html=1;fontFamily=Architects Daughter;fontSource=https%3A%2F%2Ffonts.googleapis.com%2Fcss%3Ffamily%3DArchitects%2BDaughter;fontSize=16;entryX=0.5;entryY=0;entryDx=0;entryDy=0;" edge="1" parent="1" source="-kf4WEdqDN9BY3En3-5L-2" target="-kf4WEdqDN9BY3En3-5L-1">
          <mxGeometry relative="1" as="geometry">
            <Array as="points">
              <mxPoint x="354" y="460" />
              <mxPoint x="411" y="460" />
            </Array>
          </mxGeometry>
        </mxCell>
        <mxCell id="-kf4WEdqDN9BY3En3-5L-2" value="prometheus-nats-exporter" style="sketch=0;outlineConnect=0;fontColor=#232F3E;gradientColor=none;fillColor=#D45B07;strokeColor=none;dashed=0;verticalLabelPosition=bottom;verticalAlign=top;align=center;html=1;fontSize=12;fontStyle=0;aspect=fixed;pointerEvents=1;shape=mxgraph.aws4.container_1;labelBackgroundColor=default;" parent="1" vertex="1">
          <mxGeometry x="330" y="220" width="48" height="31" as="geometry" />
        </mxCell>
        <mxCell id="nRE7B-y5H1GmPLAHqj0j-6" value="&lt;div style=&quot;font-size: 19px;&quot;&gt;&lt;font style=&quot;font-size: 12px;&quot;&gt;urls.txt&lt;/font&gt;&lt;/div&gt;" style="sketch=0;pointerEvents=1;shadow=0;dashed=0;html=1;strokeColor=none;fillColor=#505050;labelPosition=center;verticalLabelPosition=bottom;verticalAlign=top;outlineConnect=0;align=center;shape=mxgraph.office.concepts.document;fontSize=20;labelBackgroundColor=default;" vertex="1" parent="1">
          <mxGeometry x="-187.265" y="140.29" width="25.53" height="30" as="geometry" />
        </mxCell>
      </root>
    </mxGraphModel>
  </diagram>
</mxfile>
